<svg xmlns="http://www.w3.org/2000/svg" id="vide-rewind" viewBox="0 0 512 512">
    <path d="M30.81 49.81C39.779 46.154 50.09 48.154 56.97 55.029L98.07 96.129C139.14 55.749 195.18 31.209 255.17 31.209C379.6 32.11 480 132.5 480 256C480 379.5 379.6 479.9 256.1 479.9C203.79 479.9 152.8 461.57 112.6 428.13C102.41 419.63 101.04 404.51 109.538 394.32C118.069 384.1 133.158 382.76 143.348 391.258C174.9 417.5 214.9 432 256 432C353.03 432 432 353.03 432 256C432 158.97 353 80 256 80C208.92 80 165.07 99.29 132.8 130.89L184.94 183.03C191.815 189.905 193.846 200.22 190.159 209.19C186.5 218.2 177.7 224 168 224H40C26.75 224 16 213.3 16 200V72C16 62.28 21.84 53.53 30.81 49.81Z" />
    <path d="M218.926 230.35V206.5H260.476V316H233.776V230.35H218.926ZM278.022 259.75C278.022 242.55 281.322 229 287.922 219.1C294.622 209.2 305.372 204.25 320.172 204.25C334.972 204.25 345.672 209.2 352.272 219.1C358.972 229 362.322 242.55 362.322 259.75C362.322 277.15 358.972 290.8 352.272 300.7C345.672 310.6 334.972 315.55 320.172 315.55C305.372 315.55 294.622 310.6 287.922 300.7C281.322 290.8 278.022 277.15 278.022 259.75ZM337.122 259.75C337.122 249.65 336.022 241.9 333.822 236.5C331.622 231 327.072 228.25 320.172 228.25C313.272 228.25 308.722 231 306.522 236.5C304.322 241.9 303.222 249.65 303.222 259.75C303.222 266.55 303.622 272.2 304.422 276.7C305.222 281.1 306.822 284.7 309.222 287.5C311.722 290.2 315.372 291.55 320.172 291.55C324.972 291.55 328.572 290.2 330.972 287.5C333.472 284.7 335.122 281.1 335.922 276.7C336.722 272.2 337.122 266.55 337.122 259.75Z" />
</svg>
