<svg width="577" height="494" viewBox="0 0 577 494" fill="none" xmlns="http://www.w3.org/2000/svg">
    <defs>

        <symbol id="vide-enter-fullscreen" viewBox="0 0 587 440">
            <path d="M155.833 385H55V284.167C55 268.927 42.6823 256.667 27.5 256.667C12.3177 256.667 0 268.927 0 284.167V412.5C0 427.74 12.3177 440 27.5 440H155.833C171.073 440 183.333 427.74 183.333 412.5C183.333 397.26 171.073 385 155.833 385ZM155.833 0H27.5C12.3177 0 0 12.3177 0 27.5V155.833C0 171.073 12.3177 183.333 27.5 183.333C42.6938 183.333 55 171.073 55 155.833V55H155.833C171.073 55 183.333 42.7396 183.333 27.5C183.333 12.2604 171.073 0 155.833 0ZM559.167 0H430.833C415.594 0 403.333 12.3177 403.333 27.5C403.333 42.6938 415.651 55 430.833 55H531.667V155.833C531.667 171.073 543.927 183.333 559.167 183.333C574.406 183.333 586.667 171.073 586.667 155.833V27.5C586.667 12.3177 574.406 0 559.167 0ZM559.167 256.667C543.973 256.667 531.667 268.984 531.667 284.167V385H430.833C415.64 385 403.333 397.318 403.333 412.5C403.333 427.682 415.594 440 430.833 440H559.167C574.349 440 586.667 427.682 586.667 412.5V284.167C586.667 268.927 574.406 256.667 559.167 256.667Z" />
        </symbol>

        <symbol id="vide-exit-fullscreen" viewBox="0 0 587 440">
            <path d="M430.833 183.333H559.167C574.406 183.333 586.667 171.073 586.667 155.833C586.667 140.64 574.349 128.333 559.167 128.333H458.333V27.5C458.333 12.3063 446.073 0 430.833 0C415.594 0 403.333 12.3063 403.333 27.5V155.833C403.333 171.073 415.594 183.333 430.833 183.333ZM155.833 256.667H27.5C12.3177 256.667 0 268.927 0 284.167C0 299.349 12.3177 311.667 27.5 311.667H128.333V412.5C128.333 427.74 140.594 440 155.833 440C171.073 440 183.333 427.74 183.333 412.5V284.167C183.333 268.927 171.073 256.667 155.833 256.667ZM559.167 256.667H430.833C415.594 256.667 403.333 268.927 403.333 284.167V412.5C403.333 427.682 415.651 440 430.833 440C446.016 440 458.333 427.682 458.333 412.5V311.667H559.167C574.349 311.667 586.667 299.349 586.667 284.167C586.667 268.927 574.406 256.667 559.167 256.667ZM155.833 0C140.594 0 128.333 12.3063 128.333 27.5V128.333H27.5C12.3177 128.333 0 140.594 0 155.833C0 171.073 12.3177 183.333 27.5 183.333H155.833C171.073 183.333 183.333 171.073 183.333 155.833V27.5C183.333 12.3063 171.073 0 155.833 0Z" />
        </symbol>

        <symbol id="vide-airplay" viewBox="0 0 489 440">
            <path d="M162.556 440C154.407 440 148.806 436.231 145.75 428.694C142.694 421.157 144.019 414.537 149.722 408.833L231.611 326.944C233.648 324.907 235.685 323.482 237.722 322.667C239.759 321.852 242 321.444 244.444 321.444C246.889 321.444 249.13 321.852 251.167 322.667C253.204 323.482 255.241 324.907 257.278 326.944L339.167 408.833C344.87 414.537 346.194 421.157 343.139 428.694C340.083 436.231 334.481 440 326.333 440H162.556ZM36.6667 391.111C26.4815 391.111 17.8241 387.546 10.6944 380.417C3.56482 373.287 0 364.63 0 354.444V36.6667C0 26.4815 3.56482 17.8241 10.6944 10.6944C17.8241 3.56482 26.4815 0 36.6667 0H452.222C462.407 0 471.065 3.56482 478.194 10.6944C485.324 17.8241 488.889 26.4815 488.889 36.6667V354.444C488.889 364.63 485.324 373.287 478.194 380.417C471.065 387.546 462.407 391.111 452.222 391.111H373.389L270.111 287.833C266.444 284.167 262.37 281.519 257.889 279.889C253.407 278.259 248.926 277.444 244.444 277.444C239.963 277.444 235.481 278.259 231 279.889C226.519 281.519 222.444 284.167 218.778 287.833L114.889 391.111H36.6667Z" />
        </symbol>

        <symbol id="vide-chevrons" viewBox="0 0 349 449">
            <path d="M3.46089 371.18C1.15871 369.077 0.00828739 366.2 0.00828739 363.312C0.00828739 360.707 0.949785 358.102 2.85421 356.04L124.124 224.056L2.85153 91.9856C-1.16624 87.633 -0.915131 80.843 3.45835 76.8453C7.81093 72.8275 14.5675 73.0994 18.5852 77.4417L147.154 216.724C150.963 220.847 150.963 227.144 147.154 231.269L18.5852 370.551C14.5499 374.863 7.81347 375.198 3.46089 371.18Z" fill-opacity="0.5"/>
            <path d="M129.168 443.799C125.73 440.658 124.012 436.361 124.012 432.049C124.012 428.158 125.418 424.268 128.262 421.189L309.362 224.089L128.258 26.859C122.258 20.359 122.633 10.219 129.165 4.24904C135.665 -1.75096 145.755 -1.34496 151.755 5.13964L343.755 213.14C349.443 219.296 349.443 228.7 343.755 234.86L151.755 442.86C145.728 449.299 135.668 449.799 129.168 443.799Z" />
        </symbol>

        <symbol id="vide-chevrons-left" viewBox="0 0 349 449">
            <path d="M344.57 76.8196C346.872 78.9229 348.023 81.8003 348.023 84.6877C348.023 87.2932 347.081 89.8981 345.177 91.9599L223.907 223.944L345.18 356.014C349.197 360.367 348.946 367.157 344.573 371.155C340.22 375.172 333.464 374.901 329.446 370.558L200.877 231.276C197.068 227.153 197.068 220.856 200.877 216.731L329.446 77.4486C333.481 73.1366 340.218 72.8018 344.57 76.8196Z"  fill-opacity="0.5"/>
            <path d="M218.852 4.21072C222.29 7.35172 224.008 11.6487 224.008 15.9607C224.008 19.8517 222.602 23.7417 219.758 26.8207L38.6582 223.921L219.762 421.151C225.762 427.651 225.387 437.791 218.856 443.761C212.356 449.761 202.266 449.355 196.266 442.87L4.26599 234.87C-1.42201 228.714 -1.42201 219.31 4.26599 213.15L196.266 5.15012C202.292 -1.28928 212.352 -1.78928 218.852 4.21072Z" />
        </symbol>

        <symbol id="vide-import" viewBox="0 0 440 440">
            <path d="M224.039 347.789C218.668 353.16 218.668 361.866 224.039 367.228C226.703 369.875 230.227 371.25 233.75 371.25C237.273 371.25 240.787 369.908 243.47 367.221L325.97 284.721C331.341 279.35 331.341 270.645 325.97 265.282L243.47 182.782C238.098 177.411 229.393 177.411 224.03 182.782C218.668 188.153 218.659 196.859 224.03 202.221L283.078 261.25H13.75C6.14969 261.25 0 267.437 0 275C0 282.563 6.14969 288.75 13.75 288.75H283.078L224.039 347.789ZM423.93 107.68L332.406 16.1562C322.008 5.79391 308.086 0 293.477 0H165C134.664 0 110 24.6211 110 55V206.25C110 213.813 116.187 220 123.75 220C131.313 220 137.5 213.813 137.5 206.25V55C137.5 39.8148 149.815 27.5 165 27.5H275V123.75C275 146.523 293.477 165 316.25 165H412.5V385C412.5 400.185 400.185 412.5 385 412.5H165C149.815 412.5 137.5 400.185 137.5 385V343.75C137.5 336.187 131.313 330 123.75 330C116.187 330 110 336.187 110 343.75V385C110 415.379 134.63 440 165 440H385C415.379 440 440 415.379 440 385V146.523C440 131.914 434.242 117.992 423.93 107.68ZM316.25 137.5C308.687 137.5 302.5 131.313 302.5 123.75V29.2875C306.347 30.6333 309.947 32.5927 312.916 35.5601L404.439 127.084C407.43 130.023 409.406 133.633 410.695 137.5H316.25Z" />
        </symbol>

        <symbol id="vide-close" viewBox="0 0 442 441">
            <path d="M434.535 434.035C425.937 442.632 412.027 442.632 403.42 434.035L221.004 251.578L38.5466 434.035C29.949 442.632 16.0385 442.632 7.43125 434.035C-1.16637 425.437 -1.16637 411.527 7.43125 402.919L189.93 220.504L7.45875 38.0465C-1.13887 29.4488 -1.13887 15.5384 7.45875 6.93112C16.0564 -1.66649 29.9668 -1.66649 38.5741 6.93112L221.004 189.429L403.461 6.97237C412.058 -1.62525 425.969 -1.62525 434.576 6.97237C443.174 15.57 443.174 29.4805 434.576 38.0877L252.078 220.504L434.535 402.961C443.197 411.485 443.197 425.51 434.535 434.035Z" />
        </symbol>

        <symbol id="vide-cast-connected" viewBox="0 0 551 441">
            <path d="M275.2 357.833H467.013V82.8335H82.7V173.584L103.325 182.177L123.95 190.771V124.083H425.763V316.583H275.2V357.833ZM275.2 440.333V399.083H508.95V41.5835H41.45V162.583H0.199997V41.5835C0.199997 31.0418 4.32499 21.5314 12.575 13.0522C20.825 4.57308 30.45 0.333496 41.45 0.333496H508.95C519.492 0.333496 529.002 4.57308 537.481 13.0522C545.96 21.5314 550.2 31.0418 550.2 41.5835V399.083C550.2 409.625 545.96 419.136 537.481 427.615C529.002 436.094 519.492 440.333 508.95 440.333H275.2ZM0.199997 440.333H68.95C68.95 420.625 62.3042 403.781 49.0125 389.802C35.7208 375.823 19.45 368.833 0.199997 368.833V440.333ZM110.2 440.333H151.45C151.45 397.708 136.783 361.386 107.45 331.365C78.1167 301.344 42.3667 286.333 0.199997 286.333V327.583C30.9083 327.583 56.9188 338.584 78.2312 360.584C99.5437 382.584 110.2 409.167 110.2 440.333ZM192.7 440.333H233.95C233.95 407.792 227.877 377.198 215.731 348.552C203.585 319.906 186.971 294.813 165.887 273.271C144.804 251.729 120.054 234.771 91.6375 222.396C63.2208 210.021 32.7417 203.833 0.199997 203.833V245.083C27.2417 245.083 52.45 250.24 75.825 260.552C99.2 270.865 119.481 284.844 136.669 302.49C153.856 320.136 167.492 340.761 177.575 364.365C187.658 387.969 192.7 413.292 192.7 440.333Z" />
        </symbol>

        <symbol id="vide-cast" viewBox="0 0 551 441">
            <path d="M41.45 0.333496H508.95C519.492 0.333496 529.002 4.57308 537.481 13.0522C545.96 21.5314 550.2 31.0418 550.2 41.5835V399.083C550.2 409.625 545.96 419.136 537.481 427.615C529.002 436.094 519.492 440.333 508.95 440.333H275.2V399.083H508.95V41.5835H41.45V162.583H0.200012V41.5835C0.200012 31.0418 4.32501 21.5314 12.575 13.0522C20.825 4.57308 30.45 0.333496 41.45 0.333496ZM0.200012 440.333H68.95C68.95 420.625 62.3042 403.781 49.0125 389.802C35.7208 375.823 19.45 368.833 0.200012 368.833V440.333ZM110.2 440.333H151.45C151.45 397.708 136.783 361.386 107.45 331.365C78.1167 301.344 42.3667 286.333 0.200012 286.333V327.583C30.9083 327.583 56.9188 338.584 78.2313 360.584C99.5438 382.584 110.2 409.167 110.2 440.333ZM0.200012 203.833V245.083C27.2417 245.083 52.45 250.24 75.825 260.552C99.2 270.865 119.481 284.844 136.669 302.49C153.856 320.136 167.492 340.761 177.575 364.365C187.658 387.969 192.7 413.292 192.7 440.333H233.95C233.95 407.792 227.877 377.198 215.731 348.552C203.585 319.906 186.971 294.813 165.888 273.271C144.804 251.729 120.054 234.771 91.6375 222.396C63.2208 210.021 32.7417 203.833 0.200012 203.833Z" />
        </symbol>

        <symbol id="vide-captions-off" viewBox="0 0 640 512">
            <path d="M96 432c-8.822 0-16-7.178-16-16V159.4L32 121.8v294.2c0 35.35 28.65 64 64 64l393.1 .0002L427.8 432H96zM630.8 469.1l-30.73-24.09C604.7 436.2 608 426.7 608 416V95.1c0-35.35-28.65-64-64-64L96 31.1c-6.646 0-12.96 1.176-18.96 3.073L38.81 5.111c-10.47-8.172-25.49-6.359-33.69 4.078C-3.051 19.63-1.233 34.72 9.189 42.89l591.1 463.1C605.6 510.3 610.8 512 615.1 512c7.125 0 14.16-3.162 18.89-9.193C643.1 492.4 641.2 477.3 630.8 469.1zM560 413.6l-91.51-71.73c9.318-4.539 18.2-10.27 25.93-18.01c9.375-9.375 9.375-24.56 0-33.94s-24.56-9.375-33.94 0c-11.55 11.57-27.47 15.11-42.47 12.38l-35.89-28.13c-2.336-5.701-3.577-11.85-3.577-18.19c0-12.81 5-24.88 14.06-33.94c18.69-18.72 49.19-18.72 67.88 0c9.375 9.375 24.56 9.375 33.94 0s9.375-24.56 0-33.94c-37.44-37.44-98.31-37.44-135.8 0c-13.2 13.2-21.95 29.62-25.81 47.45L306.9 215.3c4.213-8.904 2.85-19.77-4.517-27.14C284.3 170 260.8 161 237 160.5L134.4 80H544c8.822 0 16 7.178 16 16V413.6zM148.9 213.4C142.4 226.5 138.5 240.9 138.5 256c0 25.64 10 49.75 28.12 67.88c18.72 18.72 43.28 28.08 67.88 28.08c22.08 0 43.9-7.969 61.72-23.06L256.6 297.8c-18.11 9.52-40.82 7.335-56.01-7.88C191.5 280.9 186.5 268.8 186.5 256c0-4.053 .6732-7.98 1.644-11.81L148.9 213.4z"/>
        </symbol>

        <symbol id="vide-captions-on" viewBox="0 0 576 512">
            <path d="M512 32H64C28.65 32 0 60.65 0 96v320c0 35.35 28.65 64 64 64h448c35.35 0 64-28.65 64-64V96C576 60.65 547.3 32 512 32zM528 416c0 8.822-7.178 16-16 16H64c-8.822 0-16-7.178-16-16V96c0-8.822 7.178-16 16-16h448c8.822 0 16 7.178 16 16V416zM236.5 222.1c9.375 9.375 24.56 9.375 33.94 0c9.375-9.375 9.375-24.56 0-33.94c-37.44-37.44-98.31-37.44-135.7 0C116.5 206.2 106.5 230.4 106.5 256s9.1 49.75 28.12 67.88c18.72 18.72 43.28 28.08 67.87 28.08s49.16-9.359 67.87-28.08c9.375-9.375 9.375-24.56 0-33.94c-9.375-9.375-24.56-9.375-33.94 0c-18.69 18.72-49.19 18.72-67.87 0C159.5 280.9 154.5 268.8 154.5 256s5-24.88 14.06-33.94C187.3 203.3 217.8 203.3 236.5 222.1zM428.5 222.1c9.375 9.375 24.56 9.375 33.94 0c9.375-9.375 9.375-24.56 0-33.94c-37.44-37.44-98.31-37.44-135.7 0C308.5 206.2 298.5 230.4 298.5 256s9.1 49.75 28.12 67.88c18.72 18.72 43.28 28.08 67.87 28.08s49.16-9.359 67.87-28.08c9.375-9.375 9.375-24.56 0-33.94c-9.375-9.375-24.56-9.375-33.94 0c-18.69 18.72-49.19 18.72-67.87 0C351.5 280.9 346.5 268.8 346.5 256s5-24.88 14.06-33.94C379.3 203.3 409.8 203.3 428.5 222.1z"/>
        </symbol>

        <symbol id="vide-captions-menu" viewBox="0 0 734 440">
            <path d="M273.74 304.906C277.406 314.302 272.823 324.958 263.427 328.74C254.031 332.406 243.375 327.823 239.594 318.427L229.625 292.302H137.042L127.073 318.427C123.292 327.823 112.59 332.406 103.194 328.74C93.7864 324.958 89.2146 314.302 92.9729 304.906L166.26 121.573C169.125 113.552 175.885 110 183.333 110C190.781 110 197.542 113.552 200.406 121.573L273.74 304.906ZM151.708 256.667H214.958L183.333 177.719L151.708 256.667ZM568.333 146.667H641.667C651.75 146.667 660 154.917 660 165C660 175.083 651.75 183.333 641.667 183.333H636.167L631.354 196.625C620.469 226.531 603.396 253.344 581.51 275.688C585.177 278.208 587.927 280.615 592.74 282.906L614.396 295.969C623.104 301.125 625.969 312.469 620.698 321.063C615.542 329.771 604.198 332.635 595.604 327.365L573.948 314.417C566.615 310.062 559.625 305.25 552.75 299.177C543.354 306.969 533.5 312.927 522.958 318.198L503.25 328.052C494.198 332.635 483.083 328.969 478.615 319.917C474.031 310.865 477.698 299.75 486.75 295.281L506.573 285.427C512.76 282.333 518.604 278.896 524.333 275.229L500.385 251.281C493.167 244.177 493.167 232.49 500.385 225.385C507.49 218.167 519.177 218.167 526.281 225.385L552.177 251.281L553.094 252.198C572.458 233.177 587.469 209.917 596.865 184.021L597.208 182.302H458.333C448.25 182.302 440 175.083 440 163.969C440 154.917 448.25 145.635 458.333 145.635H531.667V127.302C531.667 118.25 539.917 108.969 550 108.969C560.083 108.969 568.333 118.25 568.333 127.302V146.667ZM733.333 366.667C733.333 407.115 700.448 440 660 440H73.3333C32.8281 440 0 407.115 0 366.667V73.3333C0 32.8281 32.8281 0 73.3333 0H660C700.448 0 733.333 32.8281 733.333 73.3333V366.667ZM348.333 36.6667H73.3333C53.0865 36.6667 36.6667 53.0521 36.6667 73.3333V366.667C36.6667 386.948 53.0865 403.333 73.3333 403.333H348.333V36.6667ZM385 36.6667V403.333H660C680.281 403.333 696.667 386.948 696.667 366.667V73.3333C696.667 53.0521 680.281 36.6667 660 36.6667H385Z" />
        </symbol>

        <symbol id="vide-download" viewBox="0 0 48 48">
            <path xmlns="http://www.w3.org/2000/svg" d="m24 31.5-8.3-8.3 1.65-1.6 5.5 5.5V8.65h2.3V27.1l5.5-5.5 1.65 1.6ZM9 39v-9.1h2.25v6.85h25.5V29.9H39V39Z"/>
        </symbol>

        <symbol id="vide-fast-forward" viewBox="0 0 458 441">
            <path d="M457.72 39.3883V165.384C457.72 178.476 447.188 189.008 434.096 189.008H308.1C295.117 189.008 284.476 178.515 284.476 165.403C284.476 159.254 286.87 153.208 291.399 148.68L342.749 97.3659C310.955 66.2509 267.841 47.263 221.479 47.263C125.112 47.263 48.2347 124.14 48.2347 220.507C48.2347 316.874 125.968 393.751 221.479 393.751C301.417 393.751 326.901 348.136 346.588 348.136C356.609 348.136 370.232 356.014 370.232 371.77C370.232 396.487 296.308 440.94 220.514 440.94C98.9479 440.94 0.120117 342.112 0.120117 220.546C0.120117 98.9802 98.9479 0.939941 220.514 0.939941C279.604 0.939941 334.697 25.135 375.154 64.8728L415.61 24.4165C420.139 19.8875 426.182 17.5074 432.334 17.5074C447.286 15.7739 457.72 26.4245 457.72 39.3883Z" />
            <path d="M110.241 184V164.65H146.391V274H124.791V184H110.241ZM167.137 217.9C167.137 200.6 170.237 187.05 176.437 177.25C182.737 167.45 193.137 162.55 207.637 162.55C222.137 162.55 232.487 167.45 238.687 177.25C244.987 187.05 248.137 200.6 248.137 217.9C248.137 235.3 244.987 248.95 238.687 258.85C232.487 268.75 222.137 273.7 207.637 273.7C193.137 273.7 182.737 268.75 176.437 258.85C170.237 248.95 167.137 235.3 167.137 217.9ZM227.437 217.9C227.437 210.5 226.937 204.3 225.937 199.3C225.037 194.2 223.137 190.05 220.237 186.85C217.437 183.65 213.237 182.05 207.637 182.05C202.037 182.05 197.787 183.65 194.887 186.85C192.087 190.05 190.187 194.2 189.187 199.3C188.287 204.3 187.837 210.5 187.837 217.9C187.837 225.5 188.287 231.9 189.187 237.1C190.087 242.2 191.987 246.35 194.887 249.55C197.787 252.65 202.037 254.2 207.637 254.2C213.237 254.2 217.487 252.65 220.387 249.55C223.287 246.35 225.187 242.2 226.087 237.1C226.987 231.9 227.437 225.5 227.437 217.9Z" />
        </symbol>

        <symbol id="vide-logo-vimeo" viewBox="0 0 448 512">
            <path d="M447.8 153.6c-2 43.6-32.4 103.3-91.4 179.1-60.9 79.2-112.4 118.8-154.6 118.8-26.1 0-48.2-24.1-66.3-72.3C100.3 250 85.3 174.3 56.2 174.3c-3.4 0-15.1 7.1-35.2 21.1L0 168.2c51.6-45.3 100.9-95.7 131.8-98.5 34.9-3.4 56.3 20.5 64.4 71.5 28.7 181.5 41.4 208.9 93.6 126.7 18.7-29.6 28.8-52.1 30.2-67.6 4.8-45.9-35.8-42.8-63.3-31 22-72.1 64.1-107.1 126.2-105.1 45.8 1.2 67.5 31.1 64.9 89.4z"/>
        </symbol>

        <symbol id="vide-logo-youtube" viewBox="0 0 576 512">
            <path d="M549.655 124.083c-6.281-23.65-24.787-42.276-48.284-48.597C458.781 64 288 64 288 64S117.22 64 74.629 75.486c-23.497 6.322-42.003 24.947-48.284 48.597-11.412 42.867-11.412 132.305-11.412 132.305s0 89.438 11.412 132.305c6.281 23.65 24.787 41.5 48.284 47.821C117.22 448 288 448 288 448s170.78 0 213.371-11.486c23.497-6.321 42.003-24.171 48.284-47.821 11.412-42.867 11.412-132.305 11.412-132.305s0-89.438-11.412-132.305zm-317.51 213.508V175.185l142.739 81.205-142.739 81.201z"/>
        </symbol>

        <symbol id="vide-muted" viewBox="0 0 562 441">
            <path d="M297.62 2.81611C293.469 0.942639 288.984 0.00195312 284.607 0.00195312C277.001 0.00195312 269.499 2.75287 263.59 8.00569L130.234 126.479H47.4296C21.2346 126.479 0 147.713 0 173.019V266.989C0 293.184 21.2346 313.529 47.4296 313.529H130.273L263.57 432.004C269.483 437.253 276.989 440.002 284.577 440.002C288.963 440.002 293.443 439.076 297.591 437.192C308.954 432.097 316.187 420.829 316.187 408.378V31.6197C315.308 19.1793 308.984 7.9049 297.62 2.81611ZM268.767 375.879L148.316 268.767H47.4296V174.798H148.316L268.767 66.8361V375.879ZM507.793 220.449L554.264 173.978C563.527 164.714 563.527 149.709 554.264 140.441C545 131.172 529.996 131.177 520.727 140.441L474.296 187.841L426.965 141.301C417.701 132.037 402.697 132.037 393.428 141.301C384.16 150.564 384.165 165.569 393.428 174.837L439.899 221.308L393.428 267.779C384.165 277.043 384.165 292.047 393.428 301.316C402.69 310.578 417.696 310.585 426.965 301.316L474.296 254.835L520.767 301.306C530.028 310.568 545.035 310.576 554.303 301.306C563.567 292.042 563.567 277.038 554.303 267.769L507.793 220.449Z" />
        </symbol>

        <symbol id="vide-volume-0" viewBox="0 0 562 441">
            <path d="M297.62 2.81611C293.469 0.942639 288.984 0.00195312 284.607 0.00195312C277.001 0.00195312 269.499 2.75287 263.59 8.00569L130.234 126.479H47.4296C21.2346 126.479 0 147.713 0 173.019V266.989C0 293.184 21.2346 313.529 47.4296 313.529H130.273L263.57 432.004C269.483 437.253 276.989 440.002 284.577 440.002C288.963 440.002 293.443 439.076 297.591 437.192C308.954 432.097 316.187 420.829 316.187 408.378V31.6197C315.308 19.1793 308.984 7.9049 297.62 2.81611ZM268.767 375.879L148.316 268.767H47.4296V174.798H148.316L268.767 66.8361V375.879ZM507.793 220.449L554.264 173.978C563.527 164.714 563.527 149.709 554.264 140.441C545 131.172 529.996 131.177 520.727 140.441L474.296 187.841L426.965 141.301C417.701 132.037 402.697 132.037 393.428 141.301C384.16 150.564 384.165 165.569 393.428 174.837L439.899 221.308L393.428 267.779C384.165 277.043 384.165 292.047 393.428 301.316C402.69 310.578 417.696 310.585 426.965 301.316L474.296 254.835L520.767 301.306C530.028 310.568 545.035 310.576 554.303 301.306C563.567 292.042 563.567 277.038 554.303 267.769L507.793 220.449Z" />
        </symbol>

        <symbol id="vide-pause" viewBox="0 0 367 440">
            <path d="M55 0C24.6354 0 0 24.6354 0 55V385C0 415.365 24.6354 440 55 440H91.6667C122.031 440 146.667 415.365 146.667 385V55C146.667 24.6354 122.031 0 91.6667 0H55ZM275 0C244.635 0 220 24.6354 220 55V385C220 415.365 244.635 440 275 440H311.667C342.031 440 366.667 415.365 366.667 385V55C366.667 24.6354 342.031 0 311.667 0H275Z" />
        </symbol>

        <symbol id="vide-pip-connected" viewBox="0 0 551 441">
            <path d="M252.292 368.146H482.604V191.458H252.292V368.146ZM41.9166 440.333C30.9166 440.333 21.2916 436.208 13.0416 427.958C4.79163 419.708 0.666626 410.083 0.666626 399.083V41.5835C0.666626 30.5835 4.79163 20.9585 13.0416 12.7085C21.2916 4.45849 30.9166 0.333496 41.9166 0.333496H509.417C520.875 0.333496 530.614 4.45849 538.635 12.7085C546.656 20.9585 550.667 30.5835 550.667 41.5835V399.083C550.667 410.083 546.656 419.708 538.635 427.958C530.614 436.208 520.875 440.333 509.417 440.333H41.9166ZM41.9166 399.083V41.5835V399.083ZM41.9166 399.083H509.417V41.5835H41.9166V399.083ZM293.542 326.896V232.708H441.354V326.896H293.542Z" />
        </symbol>

        <symbol id="vide-pip" viewBox="0 0 551 441">
            <path d="M252.292 368.146H482.604V191.458H252.292V368.146ZM41.9166 440.333C30.9166 440.333 21.2916 436.208 13.0416 427.958C4.79163 419.708 0.666626 410.083 0.666626 399.083V41.5835C0.666626 30.5835 4.79163 20.9585 13.0416 12.7085C21.2916 4.45849 30.9166 0.333496 41.9166 0.333496H509.417C520.875 0.333496 530.614 4.45849 538.635 12.7085C546.656 20.9585 550.667 30.5835 550.667 41.5835V399.083C550.667 410.083 546.656 419.708 538.635 427.958C530.614 436.208 520.875 440.333 509.417 440.333H41.9166ZM41.9166 399.083H509.417V41.5835H41.9166V399.083ZM293.542 326.896V232.708H441.354V326.896H293.542Z" />
            <rect x="276" y="220" width="189" height="131" fill="white"/>
        </symbol>

        <symbol id="vide-play" viewBox="0 0 378 440">
            <path d="M71.6837 6.93042C57.1506 -2.0055 38.886 -2.3001 24.0582 6.04664C9.23051 14.3934 0 30.1049 0 47.1912V392.844C0 409.931 9.23051 425.642 24.0582 433.989C38.886 442.336 57.1506 441.943 71.6837 433.105L354.491 260.278C368.533 251.735 377.076 236.515 377.076 220.018C377.076 203.521 368.533 188.398 354.491 179.757L71.6837 6.93042Z" />
        </symbol>

        <symbol id="vide-play-alt" viewBox="0 0 378 440">
            <path d="M71.6837 6.93042C57.1506 -2.0055 38.886 -2.3001 24.0582 6.04664C9.23051 14.3934 0 30.1049 0 47.1912V392.844C0 409.931 9.23051 425.642 24.0582 433.989C38.886 442.336 57.1506 441.943 71.6837 433.105L354.491 260.278C368.533 251.735 377.076 236.515 377.076 220.018C377.076 203.521 368.533 188.398 354.491 179.757L71.6837 6.93042Z" />
        </symbol>

        <symbol id="vide-restart" viewBox="0 0 379 440">
            <path d="M16.3622 225.905C11.0468 225.905 6.79447 224.044 3.60523 220.324C0.415985 216.603 -0.647093 212.262 0.415988 207.301C2.89651 196.316 6.17434 185.685 10.2495 175.408C14.3246 165.132 19.1971 155.21 24.8669 145.642C27.7017 141.035 31.5111 138.555 36.295 138.201C41.0788 137.846 45.4198 139.618 49.3177 143.516C52.1526 145.996 53.7472 149.186 54.1016 153.084C54.4559 156.982 53.7472 160.525 51.9754 163.714C47.0144 171.865 42.8506 180.104 39.4842 188.431C36.1178 196.759 33.5487 204.997 31.7769 213.148C31.0682 217.046 29.2964 220.146 26.4615 222.45C23.6266 224.753 20.2602 225.905 16.3622 225.905V225.905ZM145.527 439.584C135.25 437.104 124.974 433.826 114.697 429.751C104.421 425.675 94.6758 420.803 85.4625 415.133C80.8558 412.298 78.3753 408.4 78.0209 403.439C77.6665 398.478 79.4383 393.872 83.3363 389.619C85.8168 387.139 88.8289 385.721 92.3725 385.367C95.9161 385.013 99.1054 385.721 101.94 387.493C110.091 392.454 118.152 396.618 126.125 399.984C134.098 403.351 142.337 406.097 150.842 408.223C154.386 408.932 157.398 410.792 159.878 413.804C162.359 416.816 163.599 420.271 163.599 424.169C163.599 429.485 161.827 433.648 158.284 436.661C154.74 439.673 150.488 440.647 145.527 439.584V439.584ZM24.8669 354.538C19.1971 345.324 14.3246 335.491 10.2495 325.037C6.17434 314.583 2.89651 303.687 0.415988 292.347C-0.647093 287.386 0.327399 283.045 3.33946 279.325C6.35153 275.604 10.6924 273.743 16.3622 273.743C19.9058 273.743 23.1836 274.895 26.1957 277.198C29.2078 279.502 31.0682 282.602 31.7769 286.5C33.5487 295.359 36.0292 303.953 39.2185 312.28C42.4077 320.608 46.4828 328.492 51.4439 335.934C53.57 339.123 54.4559 342.666 54.1016 346.564C53.7472 350.462 52.1526 353.829 49.3177 356.664C45.4198 360.562 41.0788 362.333 36.295 361.979C31.5111 361.625 27.7017 359.144 24.8669 354.538V354.538ZM229.51 439.053C224.549 440.47 220.297 439.673 216.753 436.661C213.209 433.648 211.438 429.485 211.438 424.169C211.438 420.626 212.678 417.348 215.158 414.336C217.639 411.324 220.651 409.286 224.195 408.223C259.985 398.655 289.397 379.609 312.43 351.083C335.464 322.557 346.98 288.804 346.98 249.824C346.98 204.82 331.654 166.992 301.002 136.34C270.35 105.688 232.522 90.3619 187.518 90.3619H176.887L207.185 120.66C210.375 123.849 211.969 127.747 211.969 132.354C211.969 136.96 210.375 140.858 207.185 144.047C203.996 147.237 200.098 148.831 195.491 148.831C190.885 148.831 186.987 147.237 183.797 144.047L125.328 85.578C123.556 83.8062 122.316 82.0344 121.607 80.2626C120.899 78.4908 120.544 76.5418 120.544 74.4157C120.544 72.2895 120.899 70.3405 121.607 68.5687C122.316 66.7969 123.556 65.0251 125.328 63.2533L183.797 4.78387C186.987 1.59462 190.885 0 195.491 0C200.098 0 203.996 1.59462 207.185 4.78387C210.375 7.97311 211.969 11.8711 211.969 16.4778C211.969 21.0844 210.375 24.9824 207.185 28.1716L176.887 58.4695H187.518C241.027 58.4695 286.296 76.9848 323.327 114.015C360.358 151.046 378.873 196.316 378.873 249.824C378.873 296.245 364.964 336.731 337.147 371.281C309.33 405.831 273.451 428.422 229.51 439.053V439.053Z" />
        </symbol>

        <symbol id="vide-rewind" viewBox="0 0 458 440">
            <path d="M8.03282e-05 38.4483V164.444C8.03282e-05 177.536 10.5325 188.068 23.6242 188.068H149.62C162.603 188.068 173.244 177.575 173.244 164.464C173.244 158.314 170.85 152.268 166.321 147.74L114.971 96.4259C146.765 65.311 189.879 46.323 236.242 46.323C332.609 46.323 409.486 123.2 409.486 219.567C409.486 315.934 331.752 392.811 236.242 392.811C156.303 392.811 130.819 347.196 111.132 347.196C101.111 347.196 87.4882 355.074 87.4882 370.83C87.4882 395.547 161.412 440 237.206 440C358.772 440 457.6 341.172 457.6 219.606C457.6 98.0403 358.772 0 237.206 0C178.116 0 123.023 24.1951 82.5665 63.9329L42.1101 23.4765C37.5812 18.9476 31.5383 16.5674 25.3862 16.5674C10.4341 14.834 8.03282e-05 25.4846 8.03282e-05 38.4483Z" />
            <path d="M211.241 186V166.65H247.391V276H225.791V186H211.241ZM268.137 219.9C268.137 202.6 271.237 189.05 277.437 179.25C283.737 169.45 294.137 164.55 308.637 164.55C323.137 164.55 333.487 169.45 339.687 179.25C345.987 189.05 349.137 202.6 349.137 219.9C349.137 237.3 345.987 250.95 339.687 260.85C333.487 270.75 323.137 275.7 308.637 275.7C294.137 275.7 283.737 270.75 277.437 260.85C271.237 250.95 268.137 237.3 268.137 219.9ZM328.437 219.9C328.437 212.5 327.937 206.3 326.937 201.3C326.037 196.2 324.137 192.05 321.237 188.85C318.437 185.65 314.237 184.05 308.637 184.05C303.037 184.05 298.787 185.65 295.887 188.85C293.087 192.05 291.187 196.2 290.187 201.3C289.287 206.3 288.837 212.5 288.837 219.9C288.837 227.5 289.287 233.9 290.187 239.1C291.087 244.2 292.987 248.35 295.887 251.55C298.787 254.65 303.037 256.2 308.637 256.2C314.237 256.2 318.487 254.65 321.387 251.55C324.287 248.35 326.187 244.2 327.087 239.1C327.987 233.9 328.437 227.5 328.437 219.9Z" />
        </symbol>

        <symbol id="vide-settings" viewBox="0 0 424 440">
            <path d="M129.496 220C129.496 173.68 165.675 137.5 211.996 137.5C257.542 137.5 294.496 173.68 294.496 220C294.496 265.547 257.542 302.5 211.996 302.5C165.675 302.5 129.496 265.547 129.496 220ZM211.996 178.75C189.222 178.75 170.746 197.227 170.746 220C170.746 242.773 189.222 261.25 211.996 261.25C234.769 261.25 253.246 242.773 253.246 220C253.246 197.227 234.769 178.75 211.996 178.75ZM243.878 0.000257813C262.957 0.000257813 279.542 13.0539 284.011 31.5734L290.714 59.4773C298.019 63.0437 304.98 67.0914 311.597 71.5687L339.183 63.4477C357.488 58.0594 377.082 65.8883 386.621 82.3883L418.503 137.586C427.957 154.086 424.949 174.969 411.199 188.117L390.316 207.195C390.574 211.922 390.746 215.961 390.746 220C390.746 224.039 390.574 228.078 390.316 232.031L411.199 251.883C424.949 265.031 427.957 285.914 418.503 302.414L386.621 357.586C377.082 374.086 357.488 381.906 339.183 376.578L311.597 368.414C304.98 372.883 298.019 376.922 290.714 380.531L284.011 408.461C279.542 426.937 262.957 440 243.878 440H180.113C161.035 440 144.449 426.937 139.98 408.461L133.277 380.531C125.972 376.922 119.011 372.883 112.394 368.414L84.0346 376.578C66.5292 381.906 46.944 374.086 37.4136 357.586L5.53074 302.414C-3.99973 285.914 -0.985041 265.031 12.8182 251.883L33.6495 232.031C33.3831 228.078 33.2456 224.039 33.2456 219.227C33.2456 215.961 33.3831 211.922 33.6495 207.195L12.8182 188.117C-0.9859 174.969 -3.99973 154.086 5.53074 137.586L37.4136 82.3883C46.944 65.8883 66.5292 58.0594 84.0346 63.4477L112.394 71.5687C119.011 67.0914 125.972 63.0437 133.277 59.4773L139.98 31.5734C144.449 13.0453 161.035 0 180.113 0L243.878 0.000257813ZM168.597 89.0312L158.972 93.0703C148.058 97.625 137.917 103.555 128.722 110.602L120.386 116.961L73.1378 103.039L41.2464 158.211L76.9104 192.156L75.5956 202.469C74.8737 208.227 74.4956 214.07 74.4956 220C74.4956 225.93 74.8737 231.773 75.5956 237.531L76.9104 247.844L41.255 281.789L73.1378 336.961L120.386 323.039L128.722 329.398C137.917 336.445 148.058 342.375 158.972 346.93L168.597 350.969L180.113 398.75H243.878L255.394 350.969L265.019 346.93C275.933 342.375 286.074 336.445 295.269 329.398L303.605 323.039L350.871 336.961L382.753 281.789L347.089 247.844L348.378 237.531C349.152 231.773 349.496 225.93 349.496 220C349.496 214.07 349.152 208.227 348.378 202.469L347.089 192.156L382.753 158.211L350.871 103.039L303.605 116.961L295.269 110.602C286.074 103.555 275.933 97.625 265.019 93.0703L255.394 89.0312L243.878 41.25H180.113L168.597 89.0312Z" />
        </symbol>

        <symbol id="vide-volume" viewBox="0 0 535 440">
            <path d="M295.821 2.79026C291.695 0.928123 287.248 0 282.896 0C275.336 0 267.879 2.73428 262.006 7.95534L129.446 125.715H47.1427C21.1062 125.715 0 146.821 0 171.974V265.375C0 291.412 21.1062 311.634 47.1427 311.634H129.485L261.976 429.393C267.83 437.25 275.294 440 282.856 440C287.215 440 291.655 439.085 295.781 437.214C307.115 432.143 314.285 420.946 314.285 408.572V31.4295C314.285 19.0643 307.115 6.97418 295.821 2.79026ZM267.142 373.607L147.419 267.143H47.1427V173.742H147.419L267.142 66.433V373.607ZM405.231 147.224C400.84 143.66 395.55 141.919 390.303 141.919C383.478 141.919 376.72 144.86 372.084 150.569C363.828 160.636 365.301 175.486 375.399 183.746C386.472 192.893 392.856 206.054 392.856 220C392.856 233.947 386.472 247.127 375.364 256.212C365.268 264.468 363.795 279.322 372.05 289.389C376.684 295.097 383.462 298.043 390.278 298.043C395.527 298.043 400.836 296.294 405.197 292.734C427.329 274.608 439.999 248.188 439.999 220C439.999 191.813 427.329 165.393 405.231 147.224ZM464.651 74.6437C460.275 71.0716 454.984 69.3234 449.722 69.3234C442.912 69.3234 436.149 72.2492 431.474 77.928C423.218 87.9949 424.691 102.845 434.758 111.105C468.088 138.385 487.142 178.063 487.142 220C487.142 261.928 468.049 301.607 434.784 328.92C424.717 337.176 423.244 352.03 431.5 362.097C436.165 367.774 442.912 370.721 449.728 370.721C455.007 370.721 460.286 368.972 464.676 365.381C508.945 329.116 534.284 276.081 534.284 220C534.284 163.92 508.945 110.885 464.651 74.6437Z" />
        </symbol>

        <symbol id="vide-volume-10" viewBox="0 0 315 440">
            <path d="M295.821 2.78928C291.693 0.927146 287.25 -0.000976562 282.896 -0.000976562C275.336 0.000987719 267.879 2.73527 262.006 7.95436L129.446 125.714H47.1428C21.1062 125.714 0 146.82 0 171.973V265.374C0 291.411 21.1062 311.633 47.1428 311.633H129.485L261.976 429.392C267.83 437.249 275.294 439.999 282.857 439.999C287.215 439.999 291.656 439.084 295.781 437.213C307.115 432.142 314.285 420.945 314.285 408.571V31.4285C314.285 19.0634 307.115 6.9732 295.821 2.78928ZM267.142 373.606L147.419 267.142H47.1428V173.741H147.419L267.142 66.432V373.606Z" />
        </symbol>

        <symbol id="vide-volume-30" viewBox="0 0 440 441">
            <path d="M405.23 148.223C400.841 144.658 395.549 142.918 390.302 142.918C383.477 142.918 376.719 145.859 372.083 151.568C363.827 161.635 365.301 176.485 375.398 184.744C386.471 193.892 392.855 207.053 392.855 220.999C392.855 234.936 386.471 248.126 375.363 257.21C365.267 265.466 363.794 280.32 372.049 290.387C376.683 296.095 383.461 299.042 390.277 299.042C395.526 299.042 400.835 297.293 405.196 293.732C427.328 275.606 439.998 249.186 439.998 220.999C439.998 192.812 427.328 166.392 405.23 148.223ZM295.82 3.78929C291.694 1.92715 287.247 0.998047 282.895 0.998047C275.336 0.998047 267.878 3.73232 262.005 8.95435L129.446 126.714H47.1426C21.1062 126.714 0 147.82 0 172.972V266.374C0 292.41 21.1062 312.633 47.1426 312.633H129.485L261.976 430.391C267.829 438.248 275.293 440.998 282.856 440.998C287.215 440.998 291.655 440.083 295.781 438.212C307.115 433.141 314.284 421.945 314.284 409.57V32.4284C314.284 20.0633 307.115 7.9732 295.82 3.78929ZM267.142 374.605L147.419 268.142H47.1426V174.74H147.419L267.142 67.4319V374.605Z" />
        </symbol>

        <symbol id="vide-volume-60" viewBox="0 0 535 440">
            <path d="M295.821 2.79026C291.695 0.928123 287.248 0 282.896 0C275.336 0 267.879 2.73428 262.006 7.95534L129.446 125.715H47.1427C21.1062 125.715 0 146.821 0 171.974V265.375C0 291.412 21.1062 311.634 47.1427 311.634H129.485L261.976 429.393C267.83 437.25 275.294 440 282.856 440C287.215 440 291.655 439.085 295.781 437.214C307.115 432.143 314.285 420.946 314.285 408.572V31.4295C314.285 19.0643 307.115 6.97418 295.821 2.79026ZM267.142 373.607L147.419 267.143H47.1427V173.742H147.419L267.142 66.433V373.607ZM405.231 147.224C400.84 143.66 395.55 141.919 390.303 141.919C383.478 141.919 376.72 144.86 372.084 150.569C363.828 160.636 365.301 175.486 375.399 183.746C386.472 192.893 392.856 206.054 392.856 220C392.856 233.947 386.472 247.127 375.364 256.212C365.268 264.468 363.795 279.322 372.05 289.389C376.684 295.097 383.462 298.043 390.278 298.043C395.527 298.043 400.836 296.294 405.197 292.734C427.329 274.608 439.999 248.188 439.999 220C439.999 191.813 427.329 165.393 405.231 147.224ZM464.651 74.6437C460.275 71.0716 454.984 69.3234 449.722 69.3234C442.912 69.3234 436.149 72.2492 431.474 77.928C423.218 87.9949 424.691 102.845 434.758 111.105C468.088 138.385 487.142 178.063 487.142 220C487.142 261.928 468.049 301.607 434.784 328.92C424.717 337.176 423.244 352.03 431.5 362.097C436.165 367.774 442.912 370.721 449.728 370.721C455.007 370.721 460.286 368.972 464.676 365.381C508.945 329.116 534.284 276.081 534.284 220C534.284 163.92 508.945 110.885 464.651 74.6437Z" />
        </symbol>

        <symbol id="vide-volume-80" viewBox="0 0 618 440">
            <path d="M290.632 6.73509C286.578 4.90851 282.211 3.93491 277.933 3.93491C270.506 3.93491 263.18 6.71772 257.41 11.8395L127.175 127.465H46.3158C20.736 127.465 0 148.191 0 173.742V266.297C0 291.847 20.736 312.574 46.3158 312.574H127.214L257.381 428.17C263.132 433.246 270.465 435.947 277.895 435.947C282.177 435.947 286.539 435.049 290.593 433.212C301.728 428.228 308.772 417.228 308.772 405.167V34.8526C308.772 22.714 301.728 11.7044 290.632 6.73509ZM262.456 370.623L144.833 266.219H46.3158V173.752H144.833L262.456 69.3193V370.623ZM398.123 148.596C393.811 145.101 388.614 143.392 383.456 143.392C376.749 143.392 370.111 146.279 365.557 151.88C357.446 161.761 358.893 176.341 368.814 184.436C379.693 193.368 385.965 206.298 385.965 219.132C385.965 232.804 379.693 245.754 368.78 254.669C358.861 262.771 357.413 277.345 365.523 287.225C370.077 292.827 376.736 295.719 383.432 295.719C388.589 295.719 393.805 294.001 398.089 290.509C419.833 273.553 432.281 247.597 432.281 219.132C432.281 190.667 419.833 166.351 398.123 148.596ZM456.5 77.386C452.201 73.8804 447.003 72.1658 441.833 72.1658C435.143 72.1658 428.498 75.0364 423.905 80.6088C415.794 90.4895 417.242 105.069 427.132 113.165C459.877 139.044 478.596 178.798 478.596 219.132C478.596 260.275 459.839 298.351 427.157 325.947C417.267 334.049 415.819 348.623 423.93 358.504C428.514 364.074 435.143 366.967 441.839 366.967C447.026 366.967 452.212 365.249 456.525 361.726C500.018 327.009 524.912 275 524.912 219.132C524.912 163.263 500.018 112.895 456.5 77.386ZM515.649 5.21053C511.307 1.7079 506.097 0 500.982 0C494.285 0 487.628 2.87254 483.035 8.43237C474.924 18.3131 476.371 32.8929 486.262 40.9885C540.254 85.2018 571.228 150.43 571.228 219.132C571.228 287.833 540.264 353.93 486.258 398.123C476.368 406.224 474.92 420.798 483.031 430.679C487.57 437.105 494.228 440 500.982 440C506.169 440 511.355 438.283 515.668 434.76C580.395 381.719 617.544 303.465 617.544 219.132C617.544 136.535 580.395 58.2228 515.649 5.21053Z" />
        </symbol>

        <symbol id="vide-quality-menu" viewBox="0 0 660 440">
            <path d="M640.292 40.8375C628.157 34.5538 613.514 35.3833 602.307 43.2426L484.516 125.788C476.208 131.589 474.203 143.033 480.003 151.318C484.802 159.615 497.177 161.563 505.542 155.833L623.333 73.3333V366.552L505.542 284.167C497.216 278.384 485.81 280.372 480.013 288.679C474.212 296.968 476.218 308.41 484.525 314.208L602.317 396.685C608.619 401.09 615.998 403.315 623.377 403.315C629.16 403.315 634.973 401.937 640.312 399.161C652.438 392.792 660 379.385 660 365.635V73.3333C660 59.5833 652.438 47.2083 640.292 40.8375ZM366.667 0H73.3333C32.8281 0 0 32.8281 0 73.3333V366.667C0 407.172 32.8281 440 73.3333 440H366.667C407.172 440 440 407.172 440 366.667V73.3333C440 32.8281 407.115 0 366.667 0ZM403.333 366.667C403.333 386.879 386.879 403.333 366.667 403.333H73.3333C53.1208 403.333 36.6667 386.879 36.6667 366.667V73.3333C36.6667 53.1208 53.1208 36.6667 73.3333 36.6667H366.667C386.879 36.6667 403.333 53.1208 403.333 73.3333V366.667Z" />
        </symbol>

        <symbol id="vide-quality-1080" viewBox="0 0 566 440">
            <path d="M502.857 0H62.8571C28.1384 0 0 28.1384 0 62.8571V377.143C0 411.862 28.1384 440 62.8571 440H502.857C537.576 440 565.714 411.862 565.714 377.143V62.8571C565.714 28.1384 537.527 0 502.857 0ZM518.571 377.143C518.571 385.807 511.522 392.857 502.857 392.857H62.8571C54.1927 392.857 47.1429 385.807 47.1429 377.143V62.8571C47.1429 54.1927 54.1927 47.1429 62.8571 47.1429H502.857C511.522 47.1429 518.571 54.1927 518.571 62.8571V377.143ZM243.571 125.714C230.607 125.714 220 136.321 220 149.286V196.429H157.143V149.286C157.143 136.321 146.634 125.714 133.571 125.714C120.509 125.714 110 136.321 110 149.286V290.714C110 303.777 120.607 314.286 133.571 314.286C146.536 314.286 157.143 303.777 157.143 290.714V243.571H220V290.714C220 303.777 230.607 314.286 243.571 314.286C256.536 314.286 267.143 303.728 267.143 290.714V149.286C267.143 136.321 256.634 125.714 243.571 125.714ZM377.143 125.714H322.143C309.129 125.714 298.571 136.272 298.571 149.286V290.714C298.571 303.728 309.129 314.286 322.143 314.286H377.143C429.138 314.286 471.429 271.995 471.429 220C471.429 168.005 429.098 125.714 377.143 125.714ZM377.143 267.143H345.714V172.857H377.143C403.14 172.857 424.286 194.003 424.286 220C424.286 245.997 403.17 267.143 377.143 267.143Z" />
        </symbol>

        <symbol id="vide-quality-720" viewBox="0 0 566 440">
            <path d="M502.857 0H62.8571C28.1384 0 0 28.1384 0 62.8571V377.143C0 411.862 28.1384 440 62.8571 440H502.857C537.576 440 565.714 411.862 565.714 377.143V62.8571C565.714 28.1384 537.527 0 502.857 0ZM518.571 377.143C518.571 385.807 511.522 392.857 502.857 392.857H62.8571C54.1927 392.857 47.1429 385.807 47.1429 377.143V62.8571C47.1429 54.1927 54.1927 47.1429 62.8571 47.1429H502.857C511.522 47.1429 518.571 54.1927 518.571 62.8571V377.143ZM243.571 125.714C230.607 125.714 220 136.321 220 149.286V196.429H157.143V149.286C157.143 136.321 146.634 125.714 133.571 125.714C120.509 125.714 110 136.321 110 149.286V290.714C110 303.777 120.607 314.286 133.571 314.286C146.536 314.286 157.143 303.777 157.143 290.714V243.571H220V290.714C220 303.777 230.607 314.286 243.571 314.286C256.536 314.286 267.143 303.728 267.143 290.714V149.286C267.143 136.321 256.634 125.714 243.571 125.714ZM377.143 125.714H322.143C309.129 125.714 298.571 136.272 298.571 149.286V290.714C298.571 303.728 309.129 314.286 322.143 314.286H377.143C429.138 314.286 471.429 271.995 471.429 220C471.429 168.005 429.098 125.714 377.143 125.714ZM377.143 267.143H345.714V172.857H377.143C403.14 172.857 424.286 194.003 424.286 220C424.286 245.997 403.17 267.143 377.143 267.143Z" />
        </symbol>

        <symbol id="vide-quality-480" viewBox="0 0 566 440">
            <path d="M0 62.8571C0 28.1875 28.1875 0 62.8571 0H502.857C537.527 0 565.714 28.1875 565.714 62.8571V377.143C565.714 411.813 537.527 440 502.857 440H62.8571C28.1875 440 0 411.813 0 377.143V62.8571ZM298.571 149.286V290.714C298.571 303.777 309.08 314.286 322.143 314.286H377.143C429.196 314.286 471.429 272.054 471.429 220C471.429 167.946 429.196 125.714 377.143 125.714H322.143C309.08 125.714 298.571 136.223 298.571 149.286ZM345.714 172.857H377.143C403.17 172.857 424.286 193.973 424.286 220C424.286 246.027 403.17 267.143 377.143 267.143H345.714V172.857ZM164.116 172.955C171.384 170.598 183.268 170.107 199.67 172.268L202.616 150.464L199.67 172.268C204.679 172.955 220.393 175.607 224.911 176.589C236.795 179.339 248.58 171.875 251.232 159.991C253.884 148.107 246.518 136.321 234.634 133.67C228.25 132.196 211.161 129.348 205.464 128.661C186.902 126.205 167.259 125.616 150.464 131.116C132 137.107 117.17 150.464 112.652 172.661C112.554 173.054 112.554 173.446 112.455 173.839C110.786 185.036 112.259 195.839 117.366 205.563C122.375 214.991 130.036 221.375 137.5 225.893C150.955 233.946 168.438 237.973 181.795 241.116L183.464 241.509C199.179 245.143 210.08 247.893 216.955 252.018C219.902 253.786 220.688 254.964 220.786 255.259C220.884 255.357 221.473 256.438 220.982 259.875C220.589 262.527 219.804 263.607 219.313 264.098C218.625 264.786 217.054 266.063 213.616 267.143C206.054 269.5 193.875 269.991 177.375 267.732C170.107 266.75 157.437 263.018 146.536 259.875C144.08 259.188 141.625 258.5 139.464 257.813C127.777 254.473 115.598 261.25 112.259 272.937C108.92 284.625 115.696 296.804 127.384 300.143C128.857 300.536 130.625 301.027 132.589 301.616C143.196 304.759 160.482 309.768 171.286 311.339H171.384C189.946 313.795 209.884 314.384 226.777 309.08C235.518 306.33 244.259 301.714 251.232 294.152C258.402 286.491 262.821 276.866 264.393 266.161C266.063 254.964 264.589 244.161 259.482 234.438C254.473 225.009 246.812 218.625 239.348 214.107C225.893 206.054 208.411 202.027 195.054 198.884L193.384 198.491C177.67 194.857 166.768 192.107 159.893 187.982C156.946 186.214 156.161 185.036 156.062 184.741C155.964 184.643 155.473 183.661 155.768 180.714C156.652 176.786 158.518 174.625 163.92 172.857L164.116 172.955Z" />
        </symbol>

        <symbol id="vide-quality-360" viewBox="0 0 566 440">
            <path d="M0 62.8571C0 28.1875 28.1875 0 62.8571 0H502.857C537.527 0 565.714 28.1875 565.714 62.8571V377.143C565.714 411.813 537.527 440 502.857 440H62.8571C28.1875 440 0 411.813 0 377.143V62.8571ZM298.571 149.286V290.714C298.571 303.777 309.08 314.286 322.143 314.286H377.143C429.196 314.286 471.429 272.054 471.429 220C471.429 167.946 429.196 125.714 377.143 125.714H322.143C309.08 125.714 298.571 136.223 298.571 149.286ZM345.714 172.857H377.143C403.17 172.857 424.286 193.973 424.286 220C424.286 246.027 403.17 267.143 377.143 267.143H345.714V172.857ZM164.116 172.955C171.384 170.598 183.268 170.107 199.67 172.268L202.616 150.464L199.67 172.268C204.679 172.955 220.393 175.607 224.911 176.589C236.795 179.339 248.58 171.875 251.232 159.991C253.884 148.107 246.518 136.321 234.634 133.67C228.25 132.196 211.161 129.348 205.464 128.661C186.902 126.205 167.259 125.616 150.464 131.116C132 137.107 117.17 150.464 112.652 172.661C112.554 173.054 112.554 173.446 112.455 173.839C110.786 185.036 112.259 195.839 117.366 205.563C122.375 214.991 130.036 221.375 137.5 225.893C150.955 233.946 168.438 237.973 181.795 241.116L183.464 241.509C199.179 245.143 210.08 247.893 216.955 252.018C219.902 253.786 220.688 254.964 220.786 255.259C220.884 255.357 221.473 256.438 220.982 259.875C220.589 262.527 219.804 263.607 219.313 264.098C218.625 264.786 217.054 266.063 213.616 267.143C206.054 269.5 193.875 269.991 177.375 267.732C170.107 266.75 157.437 263.018 146.536 259.875C144.08 259.188 141.625 258.5 139.464 257.813C127.777 254.473 115.598 261.25 112.259 272.937C108.92 284.625 115.696 296.804 127.384 300.143C128.857 300.536 130.625 301.027 132.589 301.616C143.196 304.759 160.482 309.768 171.286 311.339H171.384C189.946 313.795 209.884 314.384 226.777 309.08C235.518 306.33 244.259 301.714 251.232 294.152C258.402 286.491 262.821 276.866 264.393 266.161C266.063 254.964 264.589 244.161 259.482 234.438C254.473 225.009 246.812 218.625 239.348 214.107C225.893 206.054 208.411 202.027 195.054 198.884L193.384 198.491C177.67 194.857 166.768 192.107 159.893 187.982C156.946 186.214 156.161 185.036 156.062 184.741C155.964 184.643 155.473 183.661 155.768 180.714C156.652 176.786 158.518 174.625 163.92 172.857L164.116 172.955Z" />
        </symbol>

        <symbol id="vide-quality-1440" viewBox="0 0 440 440">
            <path d="M259.722 293.333C264.204 293.333 267.87 291.907 270.722 289.056C273.574 286.204 275 282.537 275 278.056V238.333L322.056 289.056C323.685 290.685 325.315 291.806 326.944 292.417C328.574 293.028 330.407 293.333 332.444 293.333C338.963 293.333 343.546 290.38 346.194 284.472C348.843 278.565 347.926 273.167 343.444 268.278L298.222 220L342.833 171.111C347.315 166.222 348.333 160.926 345.889 155.222C343.444 149.519 338.963 146.667 332.444 146.667C330.407 146.667 328.472 147.074 326.639 147.889C324.806 148.704 323.074 149.926 321.444 151.556L275 201.667V161.333C275 157.259 273.574 153.796 270.722 150.944C267.87 148.093 264.204 146.667 259.722 146.667C255.241 146.667 251.574 148.093 248.722 150.944C245.87 153.796 244.444 157.463 244.444 161.944V278.667C244.444 282.741 245.87 286.204 248.722 289.056C251.574 291.907 255.241 293.333 259.722 293.333V293.333ZM111.833 293.333H180.889C184.963 293.333 188.426 291.907 191.278 289.056C194.13 286.204 195.556 282.537 195.556 278.056C195.556 273.574 194.13 269.907 191.278 267.056C188.426 264.204 184.759 262.778 180.278 262.778H122.222V230.389H174.778C180.481 230.389 185.37 228.454 189.444 224.583C193.519 220.713 195.556 215.926 195.556 210.222V167.444C195.556 161.741 193.519 156.852 189.444 152.778C185.37 148.704 180.481 146.667 174.778 146.667H106.333C102.259 146.667 98.7963 148.093 95.9444 150.944C93.0926 153.796 91.6667 157.463 91.6667 161.944C91.6667 166.426 93.0926 170.093 95.9444 172.944C98.7963 175.796 102.463 177.222 106.944 177.222H165V210.222H111.833C106.13 210.222 101.343 212.157 97.4722 216.028C93.6019 219.898 91.6667 224.685 91.6667 230.389V273.167C91.6667 278.87 93.6019 283.657 97.4722 287.528C101.343 291.398 106.13 293.333 111.833 293.333V293.333ZM36.6667 440C26.8889 440 18.3333 436.333 11 429C3.66667 421.667 0 413.111 0 403.333V36.6667C0 27.2963 3.66667 18.8426 11 11.3056C18.3333 3.76852 26.8889 0 36.6667 0H403.333C412.704 0 421.157 3.76852 428.694 11.3056C436.231 18.8426 440 27.2963 440 36.6667V403.333C440 413.111 436.231 421.667 428.694 429C421.157 436.333 412.704 440 403.333 440H36.6667Z" />
        </symbol>

        <symbol id="vide-quality-2160" viewBox="0 0 440 440">
            <path d="M259.722 293.333C264.204 293.333 267.87 291.907 270.722 289.056C273.574 286.204 275 282.537 275 278.056V238.333L322.056 289.056C323.685 290.685 325.315 291.806 326.944 292.417C328.574 293.028 330.407 293.333 332.444 293.333C338.963 293.333 343.546 290.38 346.194 284.472C348.843 278.565 347.926 273.167 343.444 268.278L298.222 220L342.833 171.111C347.315 166.222 348.333 160.926 345.889 155.222C343.444 149.519 338.963 146.667 332.444 146.667C330.407 146.667 328.472 147.074 326.639 147.889C324.806 148.704 323.074 149.926 321.444 151.556L275 201.667V161.333C275 157.259 273.574 153.796 270.722 150.944C267.87 148.093 264.204 146.667 259.722 146.667C255.241 146.667 251.574 148.093 248.722 150.944C245.87 153.796 244.444 157.463 244.444 161.944V278.667C244.444 282.741 245.87 286.204 248.722 289.056C251.574 291.907 255.241 293.333 259.722 293.333V293.333ZM168.056 293.333C172.537 293.333 176.204 291.907 179.056 289.056C181.907 286.204 183.333 282.537 183.333 278.056V254.833H193.111C197.185 254.833 200.648 253.407 203.5 250.556C206.352 247.704 207.778 244.037 207.778 239.556C207.778 235.074 206.352 231.407 203.5 228.556C200.648 225.704 196.981 224.278 192.5 224.278H183.333V161.333C183.333 157.259 181.907 153.796 179.056 150.944C176.204 148.093 172.537 146.667 168.056 146.667C163.574 146.667 159.907 148.093 157.056 150.944C154.204 153.796 152.778 157.463 152.778 161.944V224.278H113.667V161.333C113.667 157.259 112.241 153.796 109.389 150.944C106.537 148.093 102.87 146.667 98.3889 146.667C93.9074 146.667 90.2407 148.093 87.3889 150.944C84.537 153.796 83.1111 157.463 83.1111 161.944V234.667C83.1111 240.37 85.0463 245.157 88.9167 249.028C92.787 252.898 97.5741 254.833 103.278 254.833H152.778V278.667C152.778 282.741 154.204 286.204 157.056 289.056C159.907 291.907 163.574 293.333 168.056 293.333ZM36.6667 440C26.8889 440 18.3333 436.333 11 429C3.66667 421.667 0 413.111 0 403.333V36.6667C0 27.2963 3.66667 18.8426 11 11.3056C18.3333 3.76852 26.8889 0 36.6667 0H403.333C412.704 0 421.157 3.76852 428.694 11.3056C436.231 18.8426 440 27.2963 440 36.6667V403.333C440 413.111 436.231 421.667 428.694 429C421.157 436.333 412.704 440 403.333 440H36.6667Z" />
        </symbol>

        <symbol id="vide-speed-menu" viewBox="0 0 440 440">
            <path d="M268.125 302.5C268.125 329.055 246.555 350.625 220 350.625C193.445 350.625 171.875 329.055 171.875 302.5C171.875 283.336 183.133 266.75 198.602 259.016V102.352C198.602 91.6953 208.57 81.7266 219.227 81.7266C231.43 81.7266 240.625 91.6953 240.625 102.352V259.016C256.867 266.75 268.125 283.336 268.125 302.5ZM0 220C0 98.4844 98.4844 0 220 0C341.516 0 440 98.4844 440 220C440 341.516 341.516 440 220 440C98.4844 440 0 341.516 0 220ZM220 398.75C318.742 398.75 398.75 318.742 398.75 220C398.75 121.258 318.742 41.25 220 41.25C121.258 41.25 41.25 121.258 41.25 220C41.25 318.742 121.258 398.75 220 398.75Z" />
        </symbol>

        <symbol id="vide-speed-50" viewBox="0 0 440 440">
            <path d="M440 220C440 341.516 341.516 440 220 440C98.4844 440 0 341.516 0 220C0 98.4844 98.4844 0 220 0C341.516 0 440 98.4844 440 220ZM275 302.5C275 272.164 250.336 247.5 220 247.5C207.883 247.5 196.625 251.453 187.516 258.156L86.4531 195.594C76.7422 189.578 64.0234 192.586 58.0937 202.297C52.1641 212.008 55.0859 224.727 64.7969 230.656L165.773 293.219C165.258 296.227 165 299.32 165 302.5C165 332.836 189.664 357.5 220 357.5C250.336 357.5 275 332.836 275 302.5Z" />
        </symbol>

        <symbol id="vide-speed-75" viewBox="0 0 440 440">
            <path d="M440 220C440 341.516 341.516 440 220 440C98.4844 440 0 341.516 0 220C0 98.4844 98.4844 0 220 0C341.516 0 440 98.4844 440 220ZM275 302.5C275 272.164 250.336 247.5 220 247.5C218.195 247.5 216.477 247.586 214.758 247.758L148.93 121.086C143.688 110.945 131.227 107.078 121.086 112.32C110.945 117.562 107.078 130.023 112.32 140.164L178.148 266.836C169.984 276.375 165 288.836 165 302.5C165 332.836 189.664 357.5 220 357.5C250.336 357.5 275 332.836 275 302.5Z" />
        </symbol>

        <symbol id="vide-speed-125" viewBox="0 0 440 440">
            <path d="M440 220C440 341.516 341.516 440 220 440C98.4844 440 0 341.516 0 220C0 98.4844 98.4844 0 220 0C341.516 0 440 98.4844 440 220ZM275 302.5C275 288.836 270.016 276.375 261.852 266.75L327.68 140.078C332.922 129.937 328.969 117.477 318.914 112.234C308.859 106.992 296.398 110.945 291.07 121L225.242 247.758C223.523 247.586 221.805 247.5 220 247.5C189.664 247.5 165 272.164 165 302.5C165 332.836 189.664 357.5 220 357.5C250.336 357.5 275 332.836 275 302.5Z" />
        </symbol>

        <symbol id="vide-speed-150" viewBox="0 0 440 440">
            <path d="M440 220C440 341.516 341.516 440 220 440C98.4844 440 0 341.516 0 220C0 98.4844 98.4844 0 220 0C341.516 0 440 98.4844 440 220ZM275 302.5C275 299.32 274.742 296.227 274.227 293.219L375.203 230.656C384.914 224.641 387.836 211.922 381.906 202.297C375.977 192.672 363.172 189.578 353.547 195.594L252.484 258.156C243.375 251.453 232.117 247.5 220 247.5C189.664 247.5 165 272.164 165 302.5C165 332.836 189.664 357.5 220 357.5C250.336 357.5 275 332.836 275 302.5Z" />
        </symbol>

        <symbol id="vide-audio-tracks-menu" viewBox="0 0 566 440">
            <path d="M62.8571 0C28.1875 0 0 28.1875 0 62.8571V377.143C0 411.813 28.1875 440 62.8571 440H502.857C537.527 440 565.714 411.813 565.714 377.143V62.8571C565.714 28.1875 537.527 0 502.857 0H62.8571ZM209.688 138.777L280.402 280.205C286.196 291.893 281.482 306.036 269.893 311.83C258.304 317.625 244.063 312.911 238.268 301.321L229.036 282.759H148.205L138.973 301.321C133.179 313.009 119.036 317.723 107.348 311.83C95.6607 305.938 90.9464 291.893 96.8393 280.205L167.554 138.777C171.58 130.821 179.732 125.714 188.67 125.714C197.607 125.714 205.759 130.723 209.786 138.777H209.688ZM209.295 243.473L188.571 202.027L167.848 243.473H209.295V243.473ZM298.571 149.286C298.571 136.223 309.08 125.714 322.143 125.714H377.143C429.196 125.714 471.429 167.946 471.429 220C471.429 272.054 429.196 314.286 377.143 314.286H322.143C309.08 314.286 298.571 303.777 298.571 290.714V149.286ZM345.714 172.857V267.143H377.143C403.17 267.143 424.286 246.027 424.286 220C424.286 193.973 403.17 172.857 377.143 172.857H345.714Z" />
        </symbol>

        <symbol id="vide-brand" viewBox="0 0 887 440">
            <path fill-opacity="0.5" d="M446.268 0L290.199 440H156.068L0 0H114.074L223.134 332.194L332.82 0H446.268ZM655.906 0C702.288 0 742.818 9.19278 777.502 27.5783C812.185 45.9639 838.926 71.8707 857.73 105.299C876.949 138.309 886.562 176.543 886.562 220C886.562 263.039 876.949 301.272 857.73 334.701C838.926 368.129 811.975 394.036 776.875 412.422C742.191 430.807 701.872 440 655.906 440H491.063V0H655.906ZM649.012 347.236C689.542 347.236 721.092 336.164 743.656 314.017C766.22 291.871 777.502 260.532 777.502 220C777.502 179.468 766.22 147.92 743.656 125.356C721.092 102.792 689.542 91.51 649.012 91.51H598.242V347.236H649.012Z" />
        </symbol>

        <symbol id="vide-backward-large" viewBox="0 0 440 440">
            <path d="M9.20451 197.811C-3.06817 210.084 -3.06817 230.015 9.20451 242.287L197.713 430.795C209.985 443.068 229.916 443.068 242.189 430.795C254.462 418.523 254.462 398.592 242.189 386.319L75.8697 220L242.091 53.6807C254.363 41.408 254.363 21.4772 242.091 9.20451C229.818 -3.06817 209.887 -3.06817 197.615 9.20451L9.10632 197.713L9.20451 197.811ZM386.221 9.30269L197.713 197.811C185.44 210.084 185.44 230.015 197.713 242.287L386.221 430.795C398.494 443.068 418.425 443.068 430.697 430.795C442.97 418.523 442.97 398.592 430.697 386.319L264.378 220L430.599 53.6807C442.872 41.408 442.872 21.4772 430.599 9.20451C418.326 -3.06817 398.396 -3.06817 386.123 9.20451L386.221 9.30269Z" />
        </symbol>

        <symbol id="vide-forward-large" viewBox="0 0 440 440">
            <path d="M430.697 242.189C442.97 229.916 442.97 209.985 430.697 197.713L242.189 9.20451C229.916 -3.06817 209.985 -3.06817 197.713 9.20451C185.44 21.4772 185.44 41.408 197.713 53.6807L364.032 220L197.811 386.319C185.538 398.592 185.538 418.523 197.811 430.795C210.084 443.068 230.015 443.068 242.287 430.795L430.795 242.287L430.697 242.189ZM53.6807 430.697L242.189 242.189C254.462 229.916 254.462 209.985 242.189 197.713L53.6807 9.20451C41.408 -3.06817 21.4772 -3.06817 9.20451 9.20451C-3.06817 21.4772 -3.06817 41.408 9.20451 53.6807L175.524 220L9.30269 386.319C-2.96999 398.592 -2.96999 418.523 9.30269 430.795C21.5754 443.068 41.5062 443.068 53.7789 430.795L53.6807 430.697Z" />
        </symbol>
    </defs>
</svg>
