<svg width="577" height="494" viewBox="0 0 577 494" fill="none" xmlns="http://www.w3.org/2000/svg">
    <defs>

        <symbol id="vide-enter-fullscreen" viewBox="0 0 48 48">
            <path xmlns="http://www.w3.org/2000/svg" d="M11.5 38q-.65 0-1.075-.425Q10 37.15 10 36.5v-6.65q0-.65.425-1.075.425-.425 1.075-.425.65 0 1.075.425Q13 29.2 13 29.85V35h5.15q.65 0 1.075.425.425.425.425 1.075 0 .65-.425 1.075Q18.8 38 18.15 38Zm0-18.35q-.65 0-1.075-.425Q10 18.8 10 18.15V11.5q0-.65.425-1.075Q10.85 10 11.5 10h6.65q.65 0 1.075.425.425.425.425 1.075 0 .65-.425 1.075Q18.8 13 18.15 13H13v5.15q0 .65-.425 1.075-.425.425-1.075.425ZM29.85 38q-.65 0-1.075-.425-.425-.425-.425-1.075 0-.65.425-1.075Q29.2 35 29.85 35H35v-5.15q0-.65.425-1.075.425-.425 1.075-.425.65 0 1.075.425Q38 29.2 38 29.85v6.65q0 .65-.425 1.075Q37.15 38 36.5 38Zm6.65-18.35q-.65 0-1.075-.425Q35 18.8 35 18.15V13h-5.15q-.65 0-1.075-.425-.425-.425-.425-1.075 0-.65.425-1.075Q29.2 10 29.85 10h6.65q.65 0 1.075.425Q38 10.85 38 11.5v6.65q0 .65-.425 1.075-.425.425-1.075.425Z"/>
        </symbol>

        <symbol id="vide-exit-fullscreen" viewBox="0 0 48 48">
            <path xmlns="http://www.w3.org/2000/svg" d="M18.15 38q-.65 0-1.075-.425-.425-.425-.425-1.075v-5.15H11.5q-.65 0-1.075-.425Q10 30.5 10 29.85q0-.65.425-1.075.425-.425 1.075-.425h6.65q.65 0 1.075.425.425.425.425 1.075v6.65q0 .65-.425 1.075Q18.8 38 18.15 38ZM11.5 19.65q-.65 0-1.075-.425Q10 18.8 10 18.15q0-.65.425-1.075.425-.425 1.075-.425h5.15V11.5q0-.65.425-1.075Q17.5 10 18.15 10q.65 0 1.075.425.425.425.425 1.075v6.65q0 .65-.425 1.075-.425.425-1.075.425ZM29.85 38q-.65 0-1.075-.425-.425-.425-.425-1.075v-6.65q0-.65.425-1.075.425-.425 1.075-.425h6.65q.65 0 1.075.425Q38 29.2 38 29.85q0 .65-.425 1.075-.425.425-1.075.425h-5.15v5.15q0 .65-.425 1.075Q30.5 38 29.85 38Zm0-18.35q-.65 0-1.075-.425-.425-.425-.425-1.075V11.5q0-.65.425-1.075Q29.2 10 29.85 10q.65 0 1.075.425.425.425.425 1.075v5.15h5.15q.65 0 1.075.425Q38 17.5 38 18.15q0 .65-.425 1.075-.425.425-1.075.425Z"/>
        </symbol>

        <symbol id="vide-airplay" viewBox="0 0 48 48">
            <path xmlns="http://www.w3.org/2000/svg" d="M17.3 42q-1 0-1.375-.925t.325-1.625l6.7-6.7q.25-.25.5-.35.25-.1.55-.1.3 0 .55.1.25.1.5.35l6.7 6.7q.7.7.325 1.625Q31.7 42 30.7 42ZM7 38q-1.25 0-2.125-.875T4 35V9q0-1.25.875-2.125T7 6h34q1.25 0 2.125.875T44 9v26q0 1.25-.875 2.125T41 38h-6.45l-8.45-8.45q-.45-.45-1-.65t-1.1-.2q-.55 0-1.1.2t-1 .65L13.4 38Z"/>
        </symbol>

        <symbol id="vide-cast" viewBox="0 0 48 48">
            <path xmlns="http://www.w3.org/2000/svg" d="M23.15 34H36.5q.65 0 1.075-.425Q38 33.15 38 32.5v-17q0-.65-.425-1.075Q37.15 14 36.5 14H10.05v6.7q5 1.7 8.25 5t4.85 8.3Zm-2.1 6q0-3.55-1.325-6.675T16.1 27.85q-2.3-2.35-5.4-3.7-3.1-1.35-6.65-1.35V11q.05-1.15.925-2.075Q5.85 8 7.05 8h34q1.15 0 2.075.925.925.925.925 2.075v26q0 1.15-.925 2.075Q42.2 40 41.05 40Zm-6 0q0-4.65-3.2-7.925-3.2-3.275-7.8-3.275v-3q2.95 0 5.5 1.125t4.425 3.05q1.875 1.925 2.975 4.5T18.05 40Zm-6 0q0-2.15-1.45-3.675T4.05 34.8v-3q3.35 0 5.675 2.4 2.325 2.4 2.325 5.8Z"/>
        </symbol>

        <symbol id="vide-cast-connected" viewBox="0 0 48 48">
            <path xmlns="http://www.w3.org/2000/svg" d="M21.05 40q0-3.55-1.325-6.675T16.1 27.85q-2.3-2.35-5.4-3.7-3.1-1.35-6.65-1.35V11q0-1.15.9-2.075Q5.85 8 7.05 8h34q1.15 0 2.075.925.925.925.925 2.075v26q0 1.15-.925 2.075Q42.2 40 41.05 40Zm-4.5 0q-.6 0-1.05-.425-.45-.425-.55-1.075-.5-3.75-3.1-6.425T5.55 28.9q-.65-.1-1.075-.55-.425-.45-.425-1.05 0-.65.45-1.075.45-.425 1.05-.325 5 .55 8.425 4.075Q17.4 33.5 17.95 38.5q.1.6-.325 1.05-.425.45-1.075.45Zm-6.05 0q-.55 0-1-.4-.45-.4-.65-1.05-.35-1.3-1.225-2.225Q6.75 35.4 5.5 35q-.65-.2-1.05-.675-.4-.475-.4-1.025 0-.65.45-1.05t1.05-.3q2.45.5 4.175 2.275Q11.45 36 11.9 38.5q.1.6-.3 1.05-.4.45-1.1.45Z"/>
        </symbol>

        <symbol id="vide-captions-off" viewBox="0 0 640 512">
            <path d="M96 432c-8.822 0-16-7.178-16-16V159.4L32 121.8v294.2c0 35.35 28.65 64 64 64l393.1 .0002L427.8 432H96zM630.8 469.1l-30.73-24.09C604.7 436.2 608 426.7 608 416V95.1c0-35.35-28.65-64-64-64L96 31.1c-6.646 0-12.96 1.176-18.96 3.073L38.81 5.111c-10.47-8.172-25.49-6.359-33.69 4.078C-3.051 19.63-1.233 34.72 9.189 42.89l591.1 463.1C605.6 510.3 610.8 512 615.1 512c7.125 0 14.16-3.162 18.89-9.193C643.1 492.4 641.2 477.3 630.8 469.1zM560 413.6l-91.51-71.73c9.318-4.539 18.2-10.27 25.93-18.01c9.375-9.375 9.375-24.56 0-33.94s-24.56-9.375-33.94 0c-11.55 11.57-27.47 15.11-42.47 12.38l-35.89-28.13c-2.336-5.701-3.577-11.85-3.577-18.19c0-12.81 5-24.88 14.06-33.94c18.69-18.72 49.19-18.72 67.88 0c9.375 9.375 24.56 9.375 33.94 0s9.375-24.56 0-33.94c-37.44-37.44-98.31-37.44-135.8 0c-13.2 13.2-21.95 29.62-25.81 47.45L306.9 215.3c4.213-8.904 2.85-19.77-4.517-27.14C284.3 170 260.8 161 237 160.5L134.4 80H544c8.822 0 16 7.178 16 16V413.6zM148.9 213.4C142.4 226.5 138.5 240.9 138.5 256c0 25.64 10 49.75 28.12 67.88c18.72 18.72 43.28 28.08 67.88 28.08c22.08 0 43.9-7.969 61.72-23.06L256.6 297.8c-18.11 9.52-40.82 7.335-56.01-7.88C191.5 280.9 186.5 268.8 186.5 256c0-4.053 .6732-7.98 1.644-11.81L148.9 213.4z"/>
        </symbol>

        <symbol id="vide-captions-on" viewBox="0 0 576 512">
            <path d="M512 32H64C28.65 32 0 60.65 0 96v320c0 35.35 28.65 64 64 64h448c35.35 0 64-28.65 64-64V96C576 60.65 547.3 32 512 32zM528 416c0 8.822-7.178 16-16 16H64c-8.822 0-16-7.178-16-16V96c0-8.822 7.178-16 16-16h448c8.822 0 16 7.178 16 16V416zM236.5 222.1c9.375 9.375 24.56 9.375 33.94 0c9.375-9.375 9.375-24.56 0-33.94c-37.44-37.44-98.31-37.44-135.7 0C116.5 206.2 106.5 230.4 106.5 256s9.1 49.75 28.12 67.88c18.72 18.72 43.28 28.08 67.87 28.08s49.16-9.359 67.87-28.08c9.375-9.375 9.375-24.56 0-33.94c-9.375-9.375-24.56-9.375-33.94 0c-18.69 18.72-49.19 18.72-67.87 0C159.5 280.9 154.5 268.8 154.5 256s5-24.88 14.06-33.94C187.3 203.3 217.8 203.3 236.5 222.1zM428.5 222.1c9.375 9.375 24.56 9.375 33.94 0c9.375-9.375 9.375-24.56 0-33.94c-37.44-37.44-98.31-37.44-135.7 0C308.5 206.2 298.5 230.4 298.5 256s9.1 49.75 28.12 67.88c18.72 18.72 43.28 28.08 67.87 28.08s49.16-9.359 67.87-28.08c9.375-9.375 9.375-24.56 0-33.94c-9.375-9.375-24.56-9.375-33.94 0c-18.69 18.72-49.19 18.72-67.87 0C351.5 280.9 346.5 268.8 346.5 256s5-24.88 14.06-33.94C379.3 203.3 409.8 203.3 428.5 222.1z"/>
        </symbol>

        <symbol id="vide-captions-menu" viewBox="0 0 48 48">
            <path xmlns="http://www.w3.org/2000/svg" d="M13.55 24.5q.6 0 1.025-.425Q15 23.65 15 23q0-.65-.425-1.075-.425-.425-1.075-.425-.65 0-1.075.425Q12 22.35 12 23q0 .65.45 1.075.45.425 1.1.425Zm-.05 6h15q.65 0 1.075-.425Q30 29.65 30 29q0-.65-.425-1.075-.425-.425-1.075-.425h-15q-.65 0-1.075.425Q12 28.35 12 29q0 .65.425 1.075.425.425 1.075.425Zm21.05 0q.6 0 1.025-.425Q36 29.65 36 29q0-.65-.45-1.075-.45-.425-1.05-.425-.65 0-1.075.425Q33 28.35 33 29q0 .65.45 1.075.45.425 1.1.425Zm-15.05-6h15q.65 0 1.075-.425Q36 23.65 36 23q0-.65-.425-1.075-.425-.425-1.075-.425h-15q-.65 0-1.075.425Q18 22.35 18 23q0 .65.425 1.075.425.425 1.075.425ZM7 40q-1.2 0-2.1-.9Q4 38.2 4 37V11q0-1.2.9-2.1Q5.8 8 7 8h34q1.25 0 2.125.9T44 11v26q0 1.2-.875 2.1-.875.9-2.125.9Z"/>
        </symbol>

        <symbol id="vide-download" viewBox="0 0 48 48">
            <path xmlns="http://www.w3.org/2000/svg" d="M24 31.75q-.3 0-.55-.1-.25-.1-.5-.35l-7.55-7.55q-.45-.45-.425-1.075.025-.625.475-1.075.45-.45 1.075-.45t1.075.45l4.9 4.95V9.5q0-.65.425-1.075Q23.35 8 24 8q.65 0 1.075.425.425.425.425 1.075v17.05l4.95-4.95q.45-.45 1.075-.45t1.075.45q.45.45.45 1.075t-.45 1.075l-7.55 7.55q-.25.25-.5.35-.25.1-.55.1ZM11 40q-1.2 0-2.1-.9Q8 38.2 8 37v-5.65q0-.65.425-1.075.425-.425 1.075-.425.65 0 1.075.425Q11 30.7 11 31.35V37h26v-5.65q0-.65.425-1.075.425-.425 1.075-.425.65 0 1.075.425Q40 30.7 40 31.35V37q0 1.2-.9 2.1-.9.9-2.1.9Z"/>
        </symbol>

        <symbol id="vide-fast-forward" viewBox="0 0 48 48">
            <path xmlns="http://www.w3.org/2000/svg" d="M7.55 34.35q-.75.55-1.55.125-.8-.425-.8-1.325v-18.3q0-.9.8-1.325.8-.425 1.55.125l13.15 9.1q.7.45.7 1.25t-.7 1.25Zm20.35 0q-.75.55-1.55.125-.8-.425-.8-1.325v-18.3q0-.9.8-1.325.8-.425 1.55.125l13.15 9.1q.7.45.7 1.25t-.7 1.25Z"/>
        </symbol>

        <symbol id="vide-logo-vimeo" viewBox="0 0 448 512">
            <path d="M447.8 153.6c-2 43.6-32.4 103.3-91.4 179.1-60.9 79.2-112.4 118.8-154.6 118.8-26.1 0-48.2-24.1-66.3-72.3C100.3 250 85.3 174.3 56.2 174.3c-3.4 0-15.1 7.1-35.2 21.1L0 168.2c51.6-45.3 100.9-95.7 131.8-98.5 34.9-3.4 56.3 20.5 64.4 71.5 28.7 181.5 41.4 208.9 93.6 126.7 18.7-29.6 28.8-52.1 30.2-67.6 4.8-45.9-35.8-42.8-63.3-31 22-72.1 64.1-107.1 126.2-105.1 45.8 1.2 67.5 31.1 64.9 89.4z"/>
        </symbol>

        <symbol id="vide-logo-youtube" viewBox="0 0 576 512">
            <path d="M549.655 124.083c-6.281-23.65-24.787-42.276-48.284-48.597C458.781 64 288 64 288 64S117.22 64 74.629 75.486c-23.497 6.322-42.003 24.947-48.284 48.597-11.412 42.867-11.412 132.305-11.412 132.305s0 89.438 11.412 132.305c6.281 23.65 24.787 41.5 48.284 47.821C117.22 448 288 448 288 448s170.78 0 213.371-11.486c23.497-6.321 42.003-24.171 48.284-47.821 11.412-42.867 11.412-132.305 11.412-132.305s0-89.438-11.412-132.305zm-317.51 213.508V175.185l142.739 81.205-142.739 81.201z"/>
        </symbol>

        <symbol id="vide-muted" viewBox="0 0 48 48">
            <path xmlns="http://www.w3.org/2000/svg" d="M15.5 30q-.65 0-1.075-.425Q14 29.15 14 28.5v-9q0-.65.425-1.075Q14.85 18 15.5 18H22l7.45-7.45q.7-.7 1.625-.325Q32 10.6 32 11.6v24.8q0 1-.925 1.375t-1.625-.325L22 30Z"/>
        </symbol>

        <symbol id="vide-pause" viewBox="0 0 48 48">
            <path xmlns="http://www.w3.org/2000/svg" d="M29.25 38q-1.25 0-2.125-.875T26.25 35V13q0-1.25.875-2.125T29.25 10H35q1.25 0 2.125.875T38 13v22q0 1.25-.875 2.125T35 38ZM13 38q-1.25 0-2.125-.875T10 35V13q0-1.25.875-2.125T13 10h5.75q1.25 0 2.125.875T21.75 13v22q0 1.25-.875 2.125T18.75 38Z"/>
        </symbol>

        <symbol id="vide-pip" viewBox="0 0 48 48">
            <path xmlns="http://www.w3.org/2000/svg" d="M23.8 34.75h13.75q.65 0 1.075-.425.425-.425.425-1.075V23.4q0-.65-.425-1.075-.425-.425-1.075-.425H23.8q-.65 0-1.075.425-.425.425-.425 1.075v9.85q0 .65.425 1.075.425.425 1.075.425ZM7 40q-1.2 0-2.1-.9Q4 38.2 4 37V11q0-1.2.9-2.1Q5.8 8 7 8h34q1.25 0 2.125.9T44 11v26q0 1.2-.875 2.1-.875.9-2.125.9Zm23.7-11.7Z"/>
        </symbol>

        <symbol id="vide-play" viewBox="0 0 48 48">
            <path xmlns="http://www.w3.org/2000/svg" d="M18.3 36.4q-.75.5-1.525.05Q16 36 16 35.1V12.6q0-.9.775-1.35.775-.45 1.525.05L36 22.6q.7.45.7 1.25T36 25.1Z"/>
        </symbol>

        <symbol id="vide-restart" viewBox="0 0 48 48">
            <path xmlns="http://www.w3.org/2000/svg" d="M20.9 41.7q-5.55-1.05-9.225-5.45T8 26.05q0-3.55 1.5-6.7Q11 16.2 13.75 14q.4-.3.95-.275.55.025.95.425.5.5.45 1.15-.05.65-.65 1.15-2.1 1.75-3.275 4.275Q11 23.25 11 26.05q0 4.7 2.9 8.175 2.9 3.475 7.35 4.475.55.1.925.55.375.45.375 1 0 .7-.5 1.125-.5.425-1.15.325Zm6.3 0q-.65.1-1.15-.325-.5-.425-.5-1.125 0-.55.375-1 .375-.45.925-.55 4.5-1 7.35-4.475 2.85-3.475 2.85-8.175 0-5.45-3.775-9.225Q29.5 13.05 24.05 13.05h-1L25 15q.4.4.4 1.05T25 17.1q-.45.45-1.1.45-.65 0-1.05-.45l-4.55-4.5q-.25-.25-.35-.5-.1-.25-.1-.55 0-.3.1-.55.1-.25.35-.5l4.55-4.55q.4-.4 1.05-.4t1.1.4q.4.45.4 1.1 0 .65-.4 1.05l-1.95 1.95h1q6.7 0 11.35 4.675 4.65 4.675 4.65 11.325 0 5.8-3.65 10.2-3.65 4.4-9.2 5.45Z"/>
        </symbol>

        <symbol id="vide-rewind" viewBox="0 0 48 48">
            <path xmlns="http://www.w3.org/2000/svg" d="m40.4 34.35-13.15-9.1q-.7-.45-.7-1.25t.7-1.25l13.15-9.1q.75-.55 1.55-.125.8.425.8 1.325v18.3q0 .9-.8 1.325-.8.425-1.55-.125Zm-20.1 0-13.15-9.1q-.7-.45-.7-1.25t.7-1.25l13.15-9.1q.75-.55 1.55-.125.8.425.8 1.325v18.3q0 .9-.8 1.325-.8.425-1.55-.125Z"/>
        </symbol>

        <symbol id="vide-settings" viewBox="0 0 48 48">
            <path xmlns="http://www.w3.org/2000/svg" d="M7 41q-1.2 0-2.1-.9Q4 39.2 4 38V11q0-1.2.9-2.1Q5.8 8 7 8h34.7q1.2 0 2.1.9.9.9.9 2.1v10.8q0 .65-.425 1.075-.425.425-1.075.425-.65 0-1.075-.425-.425-.425-.425-1.075V11H7v27h17.15q.65 0 1.075.425.425.425.425 1.075 0 .65-.425 1.075Q24.8 41 24.15 41Zm15.05-9.4q-.75.5-1.525.05-.775-.45-.775-1.3v-11.7q0-.85.775-1.3.775-.45 1.525.05L31 23.25q.35.25.5.55.15.3.15.7 0 .4-.15.7-.15.3-.5.55ZM37.2 46q-.3 0-.5-.175t-.25-.475l-.2-1.75q-1-.3-2.05-.875-1.05-.575-1.7-1.275l-1.5.7q-.25.1-.525.05t-.425-.3L29 40.3q-.15-.25-.1-.5.05-.25.3-.45l1.35-1.1q-.25-1.15-.25-2.075 0-.925.25-2.075L29.2 33q-.25-.2-.3-.45-.05-.25.1-.5l1.05-1.65q.15-.25.425-.3.275-.05.525.05l1.5.7q.65-.6 1.7-1.2 1.05-.6 2.05-.9l.2-1.8q.05-.3.25-.475t.5-.175h1.65q.3 0 .5.175t.25.475l.2 1.8q1 .3 2.05.9 1.05.6 1.7 1.2l1.5-.7q.25-.1.525-.05t.425.3l1.05 1.65q.15.25.1.5-.05.25-.3.45l-1.35 1.1q.25 1.15.25 2.075 0 .925-.25 2.075l1.35 1.1q.25.2.3.45.05.25-.1.5L46 41.9q-.15.25-.425.3-.275.05-.525-.05l-1.5-.7q-.65.7-1.7 1.275-1.05.575-2.05.875l-.2 1.75q-.05.3-.25.475t-.5.175Zm.8-4.75q2.2 0 3.65-1.45 1.45-1.45 1.45-3.65t-1.45-3.65Q40.2 31.05 38 31.05t-3.65 1.45q-1.45 1.45-1.45 3.65t1.45 3.65q1.45 1.45 3.65 1.45Z"/>
        </symbol>

        <symbol id="vide-volume" viewBox="0 0 48 48">
            <path xmlns="http://www.w3.org/2000/svg" d="M30.1 40.85q-.8.25-1.45-.25-.65-.5-.65-1.35 0-.4.225-.725.225-.325.625-.425 4.55-1.6 7.35-5.45t2.8-8.7q0-4.85-2.8-8.725T28.85 9.8q-.4-.1-.625-.45Q28 9 28 8.6q0-.85.675-1.325T30.1 7.05q5.35 1.9 8.625 6.525Q42 18.2 42 23.95t-3.275 10.375Q35.45 38.95 30.1 40.85ZM7.5 30q-.65 0-1.075-.425Q6 29.15 6 28.5v-9q0-.65.425-1.075Q6.85 18 7.5 18H14l7.45-7.45q.7-.7 1.625-.325Q24 10.6 24 11.6v24.8q0 1-.925 1.375t-1.625-.325L14 30ZM27 32.4V15.55q2.7.85 4.35 3.2Q33 21.1 33 24q0 2.95-1.65 5.25T27 32.4Z"/>
        </symbol>

        <symbol id="vide-quality-menu" viewBox="0 0 48 48">
            <path xmlns="http://www.w3.org/2000/svg" d="M13.25 30.15q.55 0 .9-.35t.35-.9v-3.2h5v3.2q0 .55.35.9t.9.35q.55 0 .9-.35t.35-.9v-9.8q0-.55-.35-.9t-.9-.35q-.55 0-.9.35t-.35.9v4.1h-5v-4.1q0-.55-.35-.9t-.9-.35q-.55 0-.9.35t-.35.9v9.8q0 .55.35.9t.9.35ZM31 33.4q.55 0 .9-.35t.35-.9v-2h2.05q.7 0 1.2-.475T36 28.5v-8.95q0-.7-.5-1.2t-1.2-.5H28q-.7 0-1.35.5-.65.5-.65 1.2v8.95q0 .7.65 1.175.65.475 1.35.475h1.75v2q0 .55.35.9t.9.35Zm-2.5-5.75v-7.3h5v7.3ZM7 40q-1.2 0-2.1-.9Q4 38.2 4 37V11q0-1.2.9-2.1Q5.8 8 7 8h34q1.25 0 2.125.9T44 11v26q0 1.2-.875 2.1-.875.9-2.125.9Z"/>
        </symbol>

        <symbol id="vide-quality-1080" viewBox="0 0 48 48">
            <path xmlns="http://www.w3.org/2000/svg" d="M24.65 30h2.5v-4.5l4.2 4.5h3.3l-5.6-6 5.6-6h-3.3l-4.2 4.5V18h-2.5Zm-7.85 0h2.5V18h-5.65v2.5h3.15ZM9 42q-1.2 0-2.1-.9Q6 40.2 6 39V9q0-1.2.9-2.1Q7.8 6 9 6h30q1.2 0 2.1.9.9.9.9 2.1v30q0 1.2-.9 2.1-.9.9-2.1.9Z"/>
        </symbol>

        <symbol id="vide-quality-720" viewBox="0 0 48 48">
            <path xmlns="http://www.w3.org/2000/svg" d="M13.25 30.15q.55 0 .9-.35t.35-.9v-3.2h5v3.2q0 .55.35.9t.9.35q.55 0 .9-.35t.35-.9v-9.8q0-.55-.35-.9t-.9-.35q-.55 0-.9.35t-.35.9v4.1h-5v-4.1q0-.55-.35-.9t-.9-.35q-.55 0-.9.35t-.35.9v9.8q0 .55.35.9t.9.35Zm13.5 0h6.75q1 0 1.75-.75t.75-1.75v-7.3q0-1-.75-1.75t-1.75-.75h-6.75q-.3 0-.525.225Q26 18.3 26 18.6v10.8q0 .3.225.525.225.225.525.225Zm1.75-2.5v-7.3h5v7.3ZM7 40q-1.2 0-2.1-.9Q4 38.2 4 37V11q0-1.2.9-2.1Q5.8 8 7 8h34q1.25 0 2.125.9T44 11v26q0 1.2-.875 2.1-.875.9-2.125.9Z"/>
        </symbol>

        <symbol id="vide-quality-480" viewBox="0 0 48 48">
            <path xmlns="http://www.w3.org/2000/svg" d="M7 40q-1.2 0-2.1-.9Q4 38.2 4 37V11q0-1.2.9-2.1Q5.8 8 7 8h34q1.2 0 2.1.9.9.9.9 2.1v26q0 1.2-.9 2.1-.9.9-2.1.9Zm6.65-9.85H20q.7 0 1.35-.475Q22 29.2 22 28.5v-3.65q0-.7-.65-1.175Q20.7 23.2 20 23.2h-5.5v-2.85h5v.85H22v-1.65q0-.7-.65-1.2t-1.35-.5h-6.35q-.7 0-1.175.5-.475.5-.475 1.2v3.65q0 .7.475 1.175.475.475 1.175.475h5.85v2.8h-5v-.8H12v1.65q0 .7.475 1.175.475.475 1.175.475Zm12.35 0h7.5q1 0 1.75-.75t.75-1.75v-7.3q0-1-.75-1.75t-1.75-.75H26Zm2.5-2.5v-7.3h5v7.3Z"/>
        </symbol>

        <symbol id="vide-quality-360" viewBox="0 0 48 48">
            <path xmlns="http://www.w3.org/2000/svg" d="M7 40q-1.2 0-2.1-.9Q4 38.2 4 37V11q0-1.2.9-2.1Q5.8 8 7 8h34q1.2 0 2.1.9.9.9.9 2.1v26q0 1.2-.9 2.1-.9.9-2.1.9Zm6.65-9.85H20q.7 0 1.35-.475Q22 29.2 22 28.5v-3.65q0-.7-.65-1.175Q20.7 23.2 20 23.2h-5.5v-2.85h5v.85H22v-1.65q0-.7-.65-1.2t-1.35-.5h-6.35q-.7 0-1.175.5-.475.5-.475 1.2v3.65q0 .7.475 1.175.475.475 1.175.475h5.85v2.8h-5v-.8H12v1.65q0 .7.475 1.175.475.475 1.175.475Zm12.35 0h7.5q1 0 1.75-.75t.75-1.75v-7.3q0-1-.75-1.75t-1.75-.75H26Zm2.5-2.5v-7.3h5v7.3Z"/>
        </symbol>

        <symbol id="vide-quality-1440" viewBox="0 0 48 48">
            <path xmlns="http://www.w3.org/2000/svg" d="M27.25 30q.55 0 .9-.35t.35-.9V25.5l3.85 4.15q.2.2.4.275.2.075.45.075.8 0 1.125-.725.325-.725-.225-1.325L30.4 24l3.65-4q.55-.6.25-1.3-.3-.7-1.1-.7-.25 0-.475.1-.225.1-.425.3l-3.8 4.1v-3.3q0-.5-.35-.85t-.9-.35q-.55 0-.9.35t-.35.9v9.55q0 .5.35.85t.9.35Zm-12.1 0h5.65q.5 0 .85-.35t.35-.9q0-.55-.35-.9t-.9-.35H16v-2.65h4.3q.7 0 1.2-.475T22 23.2v-3.5q0-.7-.5-1.2t-1.2-.5h-5.6q-.5 0-.85.35t-.35.9q0 .55.35.9t.9.35h4.75v2.7h-4.35q-.7 0-1.175.475-.475.475-.475 1.175v3.5q0 .7.475 1.175.475.475 1.175.475ZM9 42q-1.2 0-2.1-.9Q6 40.2 6 39V9q0-1.15.9-2.075Q7.8 6 9 6h30q1.15 0 2.075.925Q42 7.85 42 9v30q0 1.2-.925 2.1-.925.9-2.075.9Z"/>
        </symbol>

        <symbol id="vide-quality-2160" viewBox="0 0 48 48">
            <path xmlns="http://www.w3.org/2000/svg" d="M27.25 30q.55 0 .9-.35t.35-.9V25.5l3.85 4.15q.2.2.4.275.2.075.45.075.8 0 1.125-.725.325-.725-.225-1.325L30.4 24l3.65-4q.55-.6.25-1.3-.3-.7-1.1-.7-.25 0-.475.1-.225.1-.425.3l-3.8 4.1v-3.3q0-.5-.35-.85t-.9-.35q-.55 0-.9.35t-.35.9v9.55q0 .5.35.85t.9.35Zm-7.5 0q.55 0 .9-.35t.35-.9v-1.9h.8q.5 0 .85-.35t.35-.9q0-.55-.35-.9t-.9-.35H21V19.2q0-.5-.35-.85t-.9-.35q-.55 0-.9.35t-.35.9v5.1h-3.2V19.2q0-.5-.35-.85t-.9-.35q-.55 0-.9.35t-.35.9v5.95q0 .7.475 1.175.475.475 1.175.475h4.05v1.95q0 .5.35.85t.9.35ZM9 42q-1.2 0-2.1-.9Q6 40.2 6 39V9q0-1.15.9-2.075Q7.8 6 9 6h30q1.15 0 2.075.925Q42 7.85 42 9v30q0 1.2-.925 2.1-.925.9-2.075.9Z"/>
        </symbol>

        <symbol id="vide-speed-menu" viewBox="0 0 48 48">
            <path xmlns="http://www.w3.org/2000/svg" d="M21.05 31q1.2 1.2 3.1 1.175 1.9-.025 2.8-1.375l9-13.55q.35-.55-.075-.975-.425-.425-.975-.075l-13.55 9q-1.35.9-1.425 2.75Q19.85 29.8 21.05 31Zm-11.3 9q-.85 0-1.675-.425-.825-.425-1.225-1.225-1.3-2.4-2-4.875t-.7-5.275q0-4.15 1.575-7.825t4.275-6.4q2.7-2.725 6.325-4.325t7.725-1.6q4.1 0 7.7 1.6 3.6 1.6 6.3 4.325 2.7 2.725 4.275 6.4Q43.9 24.05 43.9 28.2q0 2.8-.65 5.35t-2 4.8q-.6 1.15-1.275 1.4Q39.3 40 38.3 40Z"/>
        </symbol>

        <symbol id="vide-audio-tracks-menu" viewBox="0 0 576 512">
            <path d="M576 32H0V480H576V32zM328 160h56c53 0 96 43 96 96s-43 96-96 96H328 304V328 184 160h24zm24 144h32c26.5 0 48-21.5 48-48s-21.5-48-48-48H352v96zM173.9 287.8h36.3L192 245.2l-18.1 42.6zm-17 40L146.5 352H94.4l75.6-177.4 6.2-14.6h31.7l6.2 14.6L289.6 352H237.5l-10.3-24.2H156.8z"/>
        </symbol>

        <symbol id="vide-brand" viewBox="0 0 182 90">
            <path d="M91.538 0.143997L59.666 90H32.274L0.402 0.143997H23.698L45.97 67.984L68.37 0.143997H91.538ZM134.35 0.143997C143.822 0.143997 152.099 2.02133 159.182 5.77599C166.265 9.53066 171.726 14.8213 175.566 21.648C179.491 28.3893 181.454 36.1973 181.454 45.072C181.454 53.8613 179.491 61.6693 175.566 68.496C171.726 75.3227 166.222 80.6133 159.054 84.368C151.971 88.1227 143.737 90 134.35 90H100.686V0.143997H134.35ZM132.942 71.056C141.219 71.056 147.662 68.7947 152.27 64.272C156.878 59.7493 159.182 53.3493 159.182 45.072C159.182 36.7947 156.878 30.352 152.27 25.744C147.662 21.136 141.219 18.832 132.942 18.832H122.574V71.056H132.942Z" fill="#fff"/>
        </symbol>

        <symbol id="vide-backward-large" viewBox="0 0 48 48">
            <path xmlns="http://www.w3.org/2000/svg" d="m40.4 34.35-13.15-9.1q-.7-.45-.7-1.25t.7-1.25l13.15-9.1q.75-.55 1.55-.125.8.425.8 1.325v18.3q0 .9-.8 1.325-.8.425-1.55-.125Zm-20.1 0-13.15-9.1q-.7-.45-.7-1.25t.7-1.25l13.15-9.1q.75-.55 1.55-.125.8.425.8 1.325v18.3q0 .9-.8 1.325-.8.425-1.55-.125Z"/>
        </symbol>

        <symbol id="vide-forward-large" viewBox="0 0 48 48">
            <path xmlns="http://www.w3.org/2000/svg" d="M7.55 34.35q-.75.55-1.55.125-.8-.425-.8-1.325v-18.3q0-.9.8-1.325.8-.425 1.55.125l13.15 9.1q.7.45.7 1.25t-.7 1.25Zm20.35 0q-.75.55-1.55.125-.8-.425-.8-1.325v-18.3q0-.9.8-1.325.8-.425 1.55.125l13.15 9.1q.7.45.7 1.25t-.7 1.25Z"/>
        </symbol>

    </defs>
</svg>
