<svg width="577" height="494" viewBox="0 0 577 494" fill="none" xmlns="http://www.w3.org/2000/svg">
    <defs>

        <symbol id="vide-enter-fullscreen" viewBox="0 0 48 48">
            <path xmlns="http://www.w3.org/2000/svg" d="M10 38v-9.75h2.25v7.5h7.5V38Zm0-18.25V10h9.75v2.25h-7.5v7.5ZM28.25 38v-2.25h7.5v-7.5H38V38Zm7.5-18.25v-7.5h-7.5V10H38v9.75Z"/>
        </symbol>

        <symbol id="vide-exit-fullscreen" viewBox="0 0 48 48">
            <path xmlns="http://www.w3.org/2000/svg" d="M17.5 38v-7.5H10v-2.25h9.75V38Zm10.75 0v-9.75H38v2.25h-7.5V38ZM10 19.75V17.5h7.5V10h2.25v9.75Zm18.25 0V10h2.25v7.5H38v2.25Z"/>
        </symbol>

        <symbol id="vide-airplay" viewBox="0 0 48 48">
            <path xmlns="http://www.w3.org/2000/svg" d="M15.15 41 24 32.2l8.8 8.8ZM5 37V7h38v30h-9.3L24 27.3 14.25 37Z"/>
        </symbol>

        <symbol id="vide-cast" viewBox="0 0 48 48">
            <path xmlns="http://www.w3.org/2000/svg" d="M24.25 32.7H36.7V15.3H12.45v4.9q4.45 1.7 7.4 4.825t4.4 7.675Zm-2.4 6.3q0-3.5-1.3-6.6-1.3-3.1-3.6-5.4-2.3-2.3-5.375-3.625Q8.5 22.05 5.05 22.05V9h38v30Zm-6.3 0q0-4.4-3.075-7.525T5.05 28.35V24.3q3.05 0 5.675 1.175t4.6 3.15q1.975 1.975 3.1 4.65Q19.55 35.95 19.55 39ZM9.2 39q0-1.8-1.225-3.075Q6.75 34.65 5.05 34.65v-4q3.45 0 5.825 2.45T13.25 39Z"/>
        </symbol>

        <symbol id="vide-cast-connected" viewBox="0 0 48 48">
            <path xmlns="http://www.w3.org/2000/svg" d="M21.85 39q0-3.5-1.3-6.6-1.3-3.1-3.6-5.4-2.3-2.3-5.375-3.625Q8.5 22.05 5.05 22.05V9h38v30Zm-6.3 0q0-4.4-3.075-7.525T5.05 28.35V24.3q3.05 0 5.675 1.175t4.6 3.15q1.975 1.975 3.1 4.65Q19.55 35.95 19.55 39ZM9.2 39q0-1.8-1.225-3.075Q6.75 34.65 5.05 34.65v-4q3.45 0 5.825 2.45T13.25 39Z"/>
        </symbol>

        <symbol id="vide-captions-off" viewBox="0 0 640 512">
            <path d="M96 432c-8.822 0-16-7.178-16-16V159.4L32 121.8v294.2c0 35.35 28.65 64 64 64l393.1 .0002L427.8 432H96zM630.8 469.1l-30.73-24.09C604.7 436.2 608 426.7 608 416V95.1c0-35.35-28.65-64-64-64L96 31.1c-6.646 0-12.96 1.176-18.96 3.073L38.81 5.111c-10.47-8.172-25.49-6.359-33.69 4.078C-3.051 19.63-1.233 34.72 9.189 42.89l591.1 463.1C605.6 510.3 610.8 512 615.1 512c7.125 0 14.16-3.162 18.89-9.193C643.1 492.4 641.2 477.3 630.8 469.1zM560 413.6l-91.51-71.73c9.318-4.539 18.2-10.27 25.93-18.01c9.375-9.375 9.375-24.56 0-33.94s-24.56-9.375-33.94 0c-11.55 11.57-27.47 15.11-42.47 12.38l-35.89-28.13c-2.336-5.701-3.577-11.85-3.577-18.19c0-12.81 5-24.88 14.06-33.94c18.69-18.72 49.19-18.72 67.88 0c9.375 9.375 24.56 9.375 33.94 0s9.375-24.56 0-33.94c-37.44-37.44-98.31-37.44-135.8 0c-13.2 13.2-21.95 29.62-25.81 47.45L306.9 215.3c4.213-8.904 2.85-19.77-4.517-27.14C284.3 170 260.8 161 237 160.5L134.4 80H544c8.822 0 16 7.178 16 16V413.6zM148.9 213.4C142.4 226.5 138.5 240.9 138.5 256c0 25.64 10 49.75 28.12 67.88c18.72 18.72 43.28 28.08 67.88 28.08c22.08 0 43.9-7.969 61.72-23.06L256.6 297.8c-18.11 9.52-40.82 7.335-56.01-7.88C191.5 280.9 186.5 268.8 186.5 256c0-4.053 .6732-7.98 1.644-11.81L148.9 213.4z"/>
        </symbol>

        <symbol id="vide-captions-on" viewBox="0 0 576 512">
            <path d="M512 32H64C28.65 32 0 60.65 0 96v320c0 35.35 28.65 64 64 64h448c35.35 0 64-28.65 64-64V96C576 60.65 547.3 32 512 32zM528 416c0 8.822-7.178 16-16 16H64c-8.822 0-16-7.178-16-16V96c0-8.822 7.178-16 16-16h448c8.822 0 16 7.178 16 16V416zM236.5 222.1c9.375 9.375 24.56 9.375 33.94 0c9.375-9.375 9.375-24.56 0-33.94c-37.44-37.44-98.31-37.44-135.7 0C116.5 206.2 106.5 230.4 106.5 256s9.1 49.75 28.12 67.88c18.72 18.72 43.28 28.08 67.87 28.08s49.16-9.359 67.87-28.08c9.375-9.375 9.375-24.56 0-33.94c-9.375-9.375-24.56-9.375-33.94 0c-18.69 18.72-49.19 18.72-67.87 0C159.5 280.9 154.5 268.8 154.5 256s5-24.88 14.06-33.94C187.3 203.3 217.8 203.3 236.5 222.1zM428.5 222.1c9.375 9.375 24.56 9.375 33.94 0c9.375-9.375 9.375-24.56 0-33.94c-37.44-37.44-98.31-37.44-135.7 0C308.5 206.2 298.5 230.4 298.5 256s9.1 49.75 28.12 67.88c18.72 18.72 43.28 28.08 67.87 28.08s49.16-9.359 67.87-28.08c9.375-9.375 9.375-24.56 0-33.94c-9.375-9.375-24.56-9.375-33.94 0c-18.69 18.72-49.19 18.72-67.87 0C351.5 280.9 346.5 268.8 346.5 256s5-24.88 14.06-33.94C379.3 203.3 409.8 203.3 428.5 222.1z"/>
        </symbol>

        <symbol id="vide-captions-menu" viewBox="0 0 48 48">
            <path xmlns="http://www.w3.org/2000/svg" d="M12.6 24.2h2.25v-2.25H12.6Zm0 6.15h17.3v-2.3H12.6Zm20.55 0h2.25v-2.3h-2.25ZM18.1 24.2h17.3v-2.25H18.1ZM5 39V9h38v30Z"/>
        </symbol>

        <symbol id="vide-download" viewBox="0 0 48 48">
            <path xmlns="http://www.w3.org/2000/svg" d="m24 31.5-8.3-8.3 1.65-1.6 5.5 5.5V8.65h2.3V27.1l5.5-5.5 1.65 1.6ZM9 39v-9.1h2.25v6.85h25.5V29.9H39V39Z"/>
        </symbol>

        <symbol id="vide-fast-forward" viewBox="0 0 48 48">
            <path xmlns="http://www.w3.org/2000/svg" d="M18.4 32.05V21.9h-2.65v-2h4.7v12.15Zm7.05 0q-.9 0-1.525-.625Q23.3 30.8 23.3 29.9v-7.85q0-.9.625-1.525.625-.625 1.525-.625h3.9q.85 0 1.475.625.625.625.625 1.525v7.85q0 .9-.625 1.525-.625.625-1.475.625Zm.1-2h3.65q.15 0 .2-.075.05-.075.05-.175v-7.7q0-.1-.05-.15-.05-.05-.2-.05h-3.65q-.1 0-.175.05-.075.05-.075.15v7.7q0 .1.075.175.075.075.175.075ZM24 43q-3.55 0-6.625-1.325t-5.4-3.65q-2.325-2.325-3.65-5.4Q7 29.55 7 26t1.325-6.625q1.325-3.075 3.65-5.4t5.4-3.65Q20.45 9 24 9h1.1l-3.8-3.8 1.55-1.55 6.4 6.4-6.4 6.35-1.55-1.5 3.65-3.65H24q-6.15 0-10.45 4.3-4.3 4.3-4.3 10.45 0 6.15 4.3 10.45 4.3 4.3 10.45 4.3 6.15 0 10.45-4.3 4.3-4.3 4.3-10.45H41q0 3.55-1.325 6.625t-3.65 5.4q-2.325 2.325-5.4 3.65Q27.55 43 24 43Z"/>
        </symbol>

        <symbol id="vide-logo-vimeo" viewBox="0 0 448 512">
            <path d="M447.8 153.6c-2 43.6-32.4 103.3-91.4 179.1-60.9 79.2-112.4 118.8-154.6 118.8-26.1 0-48.2-24.1-66.3-72.3C100.3 250 85.3 174.3 56.2 174.3c-3.4 0-15.1 7.1-35.2 21.1L0 168.2c51.6-45.3 100.9-95.7 131.8-98.5 34.9-3.4 56.3 20.5 64.4 71.5 28.7 181.5 41.4 208.9 93.6 126.7 18.7-29.6 28.8-52.1 30.2-67.6 4.8-45.9-35.8-42.8-63.3-31 22-72.1 64.1-107.1 126.2-105.1 45.8 1.2 67.5 31.1 64.9 89.4z"/>
        </symbol>

        <symbol id="vide-logo-youtube" viewBox="0 0 576 512">
            <path d="M549.655 124.083c-6.281-23.65-24.787-42.276-48.284-48.597C458.781 64 288 64 288 64S117.22 64 74.629 75.486c-23.497 6.322-42.003 24.947-48.284 48.597-11.412 42.867-11.412 132.305-11.412 132.305s0 89.438 11.412 132.305c6.281 23.65 24.787 41.5 48.284 47.821C117.22 448 288 448 288 448s170.78 0 213.371-11.486c23.497-6.321 42.003-24.171 48.284-47.821 11.412-42.867 11.412-132.305 11.412-132.305s0-89.438-11.412-132.305zm-317.51 213.508V175.185l142.739 81.205-142.739 81.201z"/>
        </symbol>

        <symbol id="vide-muted" viewBox="0 0 48 48">
            <path xmlns="http://www.w3.org/2000/svg" d="M15 29V19h7.4l8.6-8.6v27.2L22.4 29Z"/>
        </symbol>

        <symbol id="vide-pause" viewBox="0 0 48 48">
            <path xmlns="http://www.w3.org/2000/svg" d="M26.7 37V11H37v26ZM11 37V11h10.35v26Z"/>
        </symbol>

        <symbol id="vide-pip" viewBox="0 0 48 48">
            <path d="M22.55 34.75h16.2V22.4h-16.2ZM5 39V9h38v30Zm25.65-10.4Z"/>
        </symbol>

        <symbol id="vide-play" viewBox="0 0 48 48">
            <path xmlns="http://www.w3.org/2000/svg" d="M17 36.1V11.7l19.15 12.2Z"/>
        </symbol>

        <symbol id="vide-restart" viewBox="0 0 48 48">
            <path xmlns="http://www.w3.org/2000/svg" d="M24 43q-3.55 0-6.625-1.325t-5.4-3.65q-2.325-2.325-3.65-5.4Q7 29.55 7 26h2.25q0 6.15 4.3 10.45 4.3 4.3 10.45 4.3 6.15 0 10.45-4.3 4.3-4.3 4.3-10.45 0-6.15-4.2-10.45-4.2-4.3-10.35-4.3H23l3.6 3.6-1.55 1.55-6.35-6.35 6.4-6.4 1.55 1.55-3.8 3.8H24q3.55 0 6.625 1.325t5.4 3.65q2.325 2.325 3.65 5.4Q41 22.45 41 26t-1.325 6.625q-1.325 3.075-3.65 5.4t-5.4 3.65Q27.55 43 24 43Z"/>
        </symbol>

        <symbol id="vide-rewind" viewBox="0 0 48 48">
            <path xmlns="http://www.w3.org/2000/svg" d="M24 43q-3.55 0-6.625-1.325t-5.4-3.65q-2.325-2.325-3.65-5.4Q7 29.55 7 26h2.25q0 6.15 4.3 10.45 4.3 4.3 10.45 4.3 6.15 0 10.45-4.3 4.3-4.3 4.3-10.45 0-6.15-4.2-10.45-4.2-4.3-10.35-4.3h-1.15l3.6 3.6-1.6 1.55-6.35-6.35 6.4-6.4 1.55 1.55-3.8 3.8H24q3.55 0 6.625 1.325t5.4 3.65q2.325 2.325 3.65 5.4Q41 22.45 41 26t-1.325 6.625q-1.325 3.075-3.65 5.4t-5.4 3.65Q27.55 43 24 43Zm-5.6-10.95V21.9h-2.65v-2h4.7v12.15Zm7.05 0q-.9 0-1.525-.625Q23.3 30.8 23.3 29.9v-7.85q0-.9.625-1.525.625-.625 1.525-.625h3.9q.85 0 1.475.625.625.625.625 1.525v7.85q0 .9-.625 1.525-.625.625-1.475.625Zm.1-2h3.65q.15 0 .2-.075.05-.075.05-.175v-7.7q0-.1-.05-.15-.05-.05-.2-.05h-3.65q-.1 0-.175.05-.075.05-.075.15v7.7q0 .1.075.175.075.075.175.075Z"/>
        </symbol>

        <symbol id="vide-settings" viewBox="0 0 48 48">
            <path xmlns="http://www.w3.org/2000/svg" d="M5 39.75V9h38.5v13.95h-2.25v-11.7h-34v26.2H25.2v2.3Zm15.05-7.55V16.55L32 24.35ZM36.3 43.8l-.15-1.9q-1.15-.3-2.175-.875T32.25 39.7l-1.65.85-1.4-2.05 1.6-1.2q-.4-1.2-.4-2.25t.4-2.25l-1.6-1.2 1.4-2.1 1.65.9q.7-.7 1.725-1.3 1.025-.6 2.175-.9l.15-1.95h2.25l.2 1.95q1.15.3 2.175.9 1.025.6 1.675 1.25l1.7-.85 1.35 2.1-1.55 1.2q.35 1.2.35 2.225 0 1.025-.35 2.275l1.55 1.2-1.35 2.05-1.7-.85q-.65.75-1.675 1.325t-2.175.875l-.2 1.9Zm1.1-3.8q2.15 0 3.55-1.425t1.4-3.525q0-2.1-1.4-3.55-1.4-1.45-3.55-1.45-2.1 0-3.525 1.45-1.425 1.45-1.425 3.55 0 2.1 1.425 3.525Q35.3 40 37.4 40Z"/>
        </symbol>

        <symbol id="vide-volume" viewBox="0 0 48 48">
            <path xmlns="http://www.w3.org/2000/svg" d="M28.1 40.2v-2.35q4.6-1.45 7.45-5.275 2.85-3.825 2.85-8.625t-2.85-8.65q-2.85-3.85-7.45-5.25V7.7q5.55 1.5 9.075 6Q40.7 18.2 40.7 23.95T37.175 34.2q-3.525 4.5-9.075 6ZM7.3 29V19h7.45l8.55-8.6v27.2L14.75 29Zm20.05 2.6V16.35q2.3.9 3.625 3Q32.3 21.45 32.3 24q0 2.5-1.35 4.6-1.35 2.1-3.6 3Z"/>
        </symbol>

        <symbol id="vide-quality-menu" viewBox="0 0 48 48">
            <path xmlns="http://www.w3.org/2000/svg" d="M12.6 29.8h2.05v-4.35H20v4.35h2V18.2h-2v5.25h-5.35V18.2H12.6ZM29.7 33h2v-3.2h3.7V18.2H26v11.6h3.7ZM28 27.8v-7.6h5.35v7.6ZM5 39V9h38v30Z"/>
        </symbol>

        <symbol id="vide-quality-1080" viewBox="0 0 48 48">
            <path xmlns="http://www.w3.org/2000/svg" d="M25 29.7h2.05v-4.6l4.55 4.6h2.8l-5.7-5.75 5.7-5.65h-2.8l-4.55 4.6v-4.6H25Zm-7.85 0h2.05V18.3h-5.15v2.05h3.1ZM7 41V7h34v34Z"/>
        </symbol>

        <symbol id="vide-quality-720" viewBox="0 0 48 48">
            <path xmlns="http://www.w3.org/2000/svg" d="M12.6 29.8h2.05v-4.35H20v4.35h2V18.2h-2v5.25h-5.35V18.2H12.6Zm13.4 0h6.95q.95 0 1.7-.725t.75-1.725v-6.7q0-1-.75-1.725-.75-.725-1.7-.725H26Zm2-2v-7.6h5.05q.1 0 .2.1t.1.2v7q0 .1-.1.2t-.2.1ZM5 39V9h38v30Z"/>
        </symbol>

        <symbol id="vide-quality-480" viewBox="0 0 48 48">
            <path xmlns="http://www.w3.org/2000/svg" d="M12.6 29.8H22v-6.55h-7.35V20.2H20v.9h2v-2.9h-9.4v6.55H20v3.05h-5.35v-.85H12.6Zm13.4 0h6.95q.95 0 1.7-.725t.75-1.725v-6.7q0-1-.75-1.725-.75-.725-1.7-.725H26Zm2-2v-7.6h5.05q.1 0 .2.1t.1.2v7q0 .1-.1.2t-.2.1ZM5 39V9h38v30Z"/>
        </symbol>

        <symbol id="vide-quality-360" viewBox="0 0 48 48">
            <path xmlns="http://www.w3.org/2000/svg" d="M12.6 29.8H22v-6.55h-7.35V20.2H20v.9h2v-2.9h-9.4v6.55H20v3.05h-5.35v-.85H12.6Zm13.4 0h6.95q.95 0 1.7-.725t.75-1.725v-6.7q0-1-.75-1.725-.75-.725-1.7-.725H26Zm2-2v-7.6h5.05q.1 0 .2.1t.1.2v7q0 .1-.1.2t-.2.1ZM5 39V9h38v30Z"/>
        </symbol>

        <symbol id="vide-quality-1440" viewBox="0 0 48 48">
            <path xmlns="http://www.w3.org/2000/svg" d="M25.9 29.7h2v-4.6l4.55 4.6h2.8l-5.7-5.75 5.7-5.65H32.5l-4.6 4.6v-4.6h-2Zm-12.15 0h8v-2.05h-6v-2.9h6V18.3h-8v2.05h6v2.9h-6ZM7 41V7h34v34Z"/>
        </symbol>

        <symbol id="vide-quality-2160" viewBox="0 0 48 48">
            <path xmlns="http://www.w3.org/2000/svg" d="M25.9 29.7h2v-4.6l4.55 4.6h2.8l-5.7-5.75 5.7-5.65H32.5l-4.6 4.6v-4.6h-2Zm-12.65-3.1h5.55v3.1h2v-3.1h2.25v-2.05H20.8V18.3h-2v6.25h-3.55V18.3h-2ZM7 41V7h34v34Z"/>
        </symbol>

        <symbol id="vide-speed-menu" viewBox="0 0 48 48">
            <path xmlns="http://www.w3.org/2000/svg" d="M21.2 30.7q1.1 1.05 2.775.975Q25.65 31.6 26.4 30.5l10.75-15.6L21.5 25.6q-1.15.75-1.275 2.375T21.2 30.7ZM9.75 39q-.7 0-1.3-.35-.6-.35-.9-.95-1.25-2.25-1.9-4.675Q5 30.6 5 28.05q0-3.95 1.5-7.425 1.5-3.475 4.075-6.05Q13.15 12 16.6 10.5T23.9 9q3.95 0 7.45 1.5t6.075 4.075Q40 17.15 41.5 20.6T43 28q0 2.55-.625 5.05t-1.875 4.7q-.35.65-.975.95-.625.3-1.275.3Z"/>
        </symbol>

        <symbol id="vide-audio-tracks-menu" viewBox="0 0 576 512">
            <path d="M576 32H0V480H576V32zM328 160h56c53 0 96 43 96 96s-43 96-96 96H328 304V328 184 160h24zm24 144h32c26.5 0 48-21.5 48-48s-21.5-48-48-48H352v96zM173.9 287.8h36.3L192 245.2l-18.1 42.6zm-17 40L146.5 352H94.4l75.6-177.4 6.2-14.6h31.7l6.2 14.6L289.6 352H237.5l-10.3-24.2H156.8z"/>
        </symbol>

        <symbol id="vide-brand" viewBox="0 0 182 90">
            <path d="M91.538 0.143997L59.666 90H32.274L0.402 0.143997H23.698L45.97 67.984L68.37 0.143997H91.538ZM134.35 0.143997C143.822 0.143997 152.099 2.02133 159.182 5.77599C166.265 9.53066 171.726 14.8213 175.566 21.648C179.491 28.3893 181.454 36.1973 181.454 45.072C181.454 53.8613 179.491 61.6693 175.566 68.496C171.726 75.3227 166.222 80.6133 159.054 84.368C151.971 88.1227 143.737 90 134.35 90H100.686V0.143997H134.35ZM132.942 71.056C141.219 71.056 147.662 68.7947 152.27 64.272C156.878 59.7493 159.182 53.3493 159.182 45.072C159.182 36.7947 156.878 30.352 152.27 25.744C147.662 21.136 141.219 18.832 132.942 18.832H122.574V71.056H132.942Z" fill="#fff"/>
        </symbol>

        <symbol id="vide-backward-large" viewBox="0 0 48 48">
            <path xmlns="http://www.w3.org/2000/svg" d="M41.2 34.6 25.75 24 41.2 13.4Zm-18.95 0L6.8 24l15.45-10.6Z"/>
        </symbol>

        <symbol id="vide-forward-large" viewBox="0 0 48 48">
            <path xmlns="http://www.w3.org/2000/svg" d="M6.75 34.6V13.4L22.15 24Zm19.15 0V13.4L41.3 24Z"/>
        </symbol>

    </defs>
</svg>
